<svg width="350" height="350" viewBox="0 0 350 350" fill="none" xmlns="http://www.w3.org/2000/svg">
<rect width="350" height="350" rx="60" fill="#C3F02C"/>
<path d="M100 126H105.455C127.546 126 145.455 143.909 145.455 166V202H131.818L145.455 218V246H140C117.909 246 100 228.091 100 206V126Z" fill="#126100"/>
<path d="M204.546 100H210C232.092 100 250 117.909 250 140V220H244.546C222.454 220 204.546 202.091 204.546 180V144H218.182L204.546 128V100Z" fill="#126100"/>
<path d="M152.272 58H157.727C179.818 58 197.727 75.9086 197.727 98V128L184.091 144H197.727V292H192.272C170.181 292 152.272 274.091 152.272 252V218L165.909 202H152.272V58Z" fill="#126100"/>
</svg>
