<svg width="965" height="250" viewBox="0 0 965 250" fill="none" xmlns="http://www.w3.org/2000/svg">
<g filter="url(#filter0_di_1411_76157)">
<path d="M222.352 188.2C210.752 188.2 200.752 186.333 192.352 182.6C184.085 178.733 176.485 172.933 169.552 165.2L189.952 145C194.485 150.2 199.485 154.267 204.952 157.2C210.552 160 217.018 161.4 224.352 161.4C231.018 161.4 236.152 160.2 239.752 157.8C243.485 155.4 245.352 152.067 245.352 147.8C245.352 143.933 244.152 140.8 241.752 138.4C239.352 136 236.152 133.933 232.152 132.2C228.285 130.467 223.952 128.8 219.152 127.2C214.485 125.6 209.818 123.8 205.152 121.8C200.485 119.667 196.152 117.067 192.152 114C188.285 110.8 185.152 106.867 182.752 102.2C180.352 97.4 179.152 91.4 179.152 84.2C179.152 75.5333 181.218 68.0667 185.352 61.8C189.618 55.5333 195.485 50.8 202.952 47.6C210.418 44.2667 219.018 42.6 228.752 42.6C238.618 42.6 247.618 44.3333 255.752 47.8C264.018 51.2667 270.818 56 276.152 62L255.752 82.2C251.485 77.8 247.152 74.5333 242.752 72.4C238.485 70.2667 233.618 69.2 228.152 69.2C222.685 69.2 218.352 70.2667 215.152 72.4C211.952 74.4 210.352 77.3333 210.352 81.2C210.352 84.8 211.552 87.7333 213.952 90C216.352 92.1333 219.485 94 223.352 95.6C227.352 97.2 231.685 98.8 236.352 100.4C241.152 102 245.885 103.867 250.552 106C255.218 108.133 259.485 110.867 263.352 114.2C267.352 117.4 270.552 121.533 272.952 126.6C275.352 131.533 276.552 137.667 276.552 145C276.552 158.467 271.752 169.067 262.152 176.8C252.552 184.4 239.285 188.2 222.352 188.2ZM327.767 188C318.834 188 310.834 185.8 303.767 181.4C296.834 177 291.301 171 287.167 163.4C283.167 155.8 281.167 147.133 281.167 137.4C281.167 127.667 283.167 119 287.167 111.4C291.301 103.8 296.834 97.8 303.767 93.4C310.834 89 318.834 86.8 327.767 86.8C334.301 86.8 340.167 88.0667 345.367 90.6C350.701 93.1333 355.034 96.6667 358.367 101.2C361.701 105.6 363.567 110.667 363.967 116.4V158.4C363.567 164.133 361.701 169.267 358.367 173.8C355.167 178.2 350.901 181.667 345.567 184.2C340.234 186.733 334.301 188 327.767 188ZM333.967 160.4C340.501 160.4 345.767 158.267 349.767 154C353.767 149.6 355.767 144.067 355.767 137.4C355.767 132.867 354.834 128.867 352.967 125.4C351.234 121.933 348.701 119.267 345.367 117.4C342.167 115.4 338.434 114.4 334.167 114.4C329.901 114.4 326.101 115.4 322.767 117.4C319.567 119.267 316.967 121.933 314.967 125.4C313.101 128.867 312.167 132.867 312.167 137.4C312.167 141.8 313.101 145.733 314.967 149.2C316.834 152.667 319.434 155.4 322.767 157.4C326.101 159.4 329.834 160.4 333.967 160.4ZM354.567 186V159.8L359.167 136.2L354.567 112.6V88.8H384.567V186H354.567ZM412.513 186V80.4C412.513 72.5333 414.246 65.4667 417.713 59.2C421.313 52.8 426.313 47.8 432.713 44.2C439.113 40.4667 446.713 38.6 455.513 38.6C462.179 38.6 467.979 39.7333 472.913 42C477.979 44.1333 482.379 47.1333 486.113 51L466.913 70.2C465.579 68.8667 464.046 67.8667 462.313 67.2C460.713 66.4 458.779 66 456.513 66C452.379 66 449.113 67.2 446.713 69.6C444.313 72 443.113 75.2667 443.113 79.4V186H412.513ZM391.113 114.8V88.8H471.113V114.8H391.113ZM524.422 188.2C515.489 188.2 507.555 186.4 500.622 182.8C493.822 179.067 488.489 174 484.622 167.6C480.755 161.067 478.822 153.6 478.822 145.2V88.8H509.422V144.8C509.422 148.133 509.955 151 511.022 153.4C512.222 155.8 513.955 157.667 516.222 159C518.489 160.333 521.222 161 524.422 161C528.955 161 532.555 159.6 535.222 156.8C537.889 153.867 539.222 149.867 539.222 144.8V88.8H569.822V145C569.822 153.533 567.889 161.067 564.022 167.6C560.155 174 554.822 179.067 548.022 182.8C541.222 186.4 533.355 188.2 524.422 188.2ZM583.034 186V40.8H613.634V186H583.034ZM655.983 134.6V110.2H686.383C690.249 110.2 693.783 109.4 696.983 107.8C700.183 106.2 702.716 103.867 704.583 100.8C706.449 97.7333 707.383 94 707.383 89.6C707.383 85.3333 706.449 81.6667 704.583 78.6C702.716 75.5333 700.183 73.2 696.983 71.6C693.783 70 690.249 69.2 686.383 69.2H655.983V44.8H690.983C699.916 44.8 707.983 46.6 715.183 50.2C722.383 53.8 728.049 59 732.183 65.8C736.449 72.4667 738.583 80.4 738.583 89.6C738.583 98.8 736.449 106.8 732.183 113.6C728.049 120.267 722.383 125.467 715.183 129.2C707.983 132.8 699.916 134.6 690.983 134.6H655.983ZM631.983 186V44.8H663.383V186H631.983ZM785.267 188C776.334 188 768.334 185.8 761.267 181.4C754.334 177 748.801 171 744.667 163.4C740.667 155.8 738.667 147.133 738.667 137.4C738.667 127.667 740.667 119 744.667 111.4C748.801 103.8 754.334 97.8 761.267 93.4C768.334 89 776.334 86.8 785.267 86.8C791.801 86.8 797.667 88.0667 802.867 90.6C808.201 93.1333 812.534 96.6667 815.867 101.2C819.201 105.6 821.067 110.667 821.467 116.4V158.4C821.067 164.133 819.201 169.267 815.867 173.8C812.667 178.2 808.401 181.667 803.067 184.2C797.734 186.733 791.801 188 785.267 188ZM791.467 160.4C798.001 160.4 803.267 158.267 807.267 154C811.267 149.6 813.267 144.067 813.267 137.4C813.267 132.867 812.334 128.867 810.467 125.4C808.734 121.933 806.201 119.267 802.867 117.4C799.667 115.4 795.934 114.4 791.667 114.4C787.401 114.4 783.601 115.4 780.267 117.4C777.067 119.267 774.467 121.933 772.467 125.4C770.601 128.867 769.667 132.867 769.667 137.4C769.667 141.8 770.601 145.733 772.467 149.2C774.334 152.667 776.934 155.4 780.267 157.4C783.601 159.4 787.334 160.4 791.467 160.4ZM812.067 186V159.8L816.667 136.2L812.067 112.6V88.8H842.067V186H812.067ZM887.613 186.4L847.613 88.8H880.613L906.013 166.2H893.813L919.813 88.8H952.813L911.213 186.4H887.613ZM862.613 227L891.813 164L911.213 186.4L894.013 227H862.613Z" fill="white"/>
</g>
<g filter="url(#filter1_di_1411_76157)">
<path d="M4 68C26.0914 68 44 85.9086 44 108V144H32L44 160V188C21.9086 188 4 170.091 4 148V68Z" fill="white"/>
<path d="M96 42C118.091 42 136 59.9086 136 82V162C113.909 162 96 144.091 96 122V86H108L96 70V42Z" fill="white"/>
<path d="M50 0C72.0914 0 90 17.9086 90 40V70L78 86H90V234C67.9086 234 50 216.091 50 194V160L62 144H50V0Z" fill="white"/>
</g>
<defs>
<filter id="filter0_di_1411_76157" x="162" y="12" width="804" height="231" filterUnits="userSpaceOnUse" color-interpolation-filters="sRGB">
<feFlood flood-opacity="0" result="BackgroundImageFix"/>
<feColorMatrix in="SourceAlpha" type="matrix" values="0 0 0 0 0 0 0 0 0 0 0 0 0 0 0 0 0 0 127 0" result="hardAlpha"/>
<feOffset dx="4" dy="8"/>
<feGaussianBlur stdDeviation="4"/>
<feComposite in2="hardAlpha" operator="out"/>
<feColorMatrix type="matrix" values="0 0 0 0 0 0 0 0 0 0 0 0 0 0 0 0 0 0 0.3 0"/>
<feBlend mode="normal" in2="BackgroundImageFix" result="effect1_dropShadow_1411_76157"/>
<feBlend mode="normal" in="SourceGraphic" in2="effect1_dropShadow_1411_76157" result="shape"/>
<feColorMatrix in="SourceAlpha" type="matrix" values="0 0 0 0 0 0 0 0 0 0 0 0 0 0 0 0 0 0 127 0" result="hardAlpha"/>
<feOffset dx="4" dy="8"/>
<feGaussianBlur stdDeviation="4"/>
<feComposite in2="hardAlpha" operator="arithmetic" k2="-1" k3="1"/>
<feColorMatrix type="matrix" values="0 0 0 0 0 0 0 0 0 0 0 0 0 0 0 0 0 0 0.25 0"/>
<feBlend mode="normal" in2="shape" result="effect2_innerShadow_1411_76157"/>
</filter>
<filter id="filter1_di_1411_76157" x="0" y="0" width="148" height="250" filterUnits="userSpaceOnUse" color-interpolation-filters="sRGB">
<feFlood flood-opacity="0" result="BackgroundImageFix"/>
<feColorMatrix in="SourceAlpha" type="matrix" values="0 0 0 0 0 0 0 0 0 0 0 0 0 0 0 0 0 0 127 0" result="hardAlpha"/>
<feOffset dx="4" dy="8"/>
<feGaussianBlur stdDeviation="4"/>
<feComposite in2="hardAlpha" operator="out"/>
<feColorMatrix type="matrix" values="0 0 0 0 0 0 0 0 0 0 0 0 0 0 0 0 0 0 0.3 0"/>
<feBlend mode="normal" in2="BackgroundImageFix" result="effect1_dropShadow_1411_76157"/>
<feBlend mode="normal" in="SourceGraphic" in2="effect1_dropShadow_1411_76157" result="shape"/>
<feColorMatrix in="SourceAlpha" type="matrix" values="0 0 0 0 0 0 0 0 0 0 0 0 0 0 0 0 0 0 127 0" result="hardAlpha"/>
<feOffset dx="4" dy="8"/>
<feGaussianBlur stdDeviation="4"/>
<feComposite in2="hardAlpha" operator="arithmetic" k2="-1" k3="1"/>
<feColorMatrix type="matrix" values="0 0 0 0 0 0 0 0 0 0 0 0 0 0 0 0 0 0 0.25 0"/>
<feBlend mode="normal" in2="shape" result="effect2_innerShadow_1411_76157"/>
</filter>
</defs>
</svg>
