<svg width="950" height="234" viewBox="0 0 950 234" fill="none" xmlns="http://www.w3.org/2000/svg">
<path d="M218.352 188.2C206.752 188.2 196.752 186.333 188.352 182.6C180.085 178.733 172.485 172.933 165.552 165.2L185.952 145C190.485 150.2 195.485 154.267 200.952 157.2C206.552 160 213.018 161.4 220.352 161.4C227.018 161.4 232.152 160.2 235.752 157.8C239.485 155.4 241.352 152.067 241.352 147.8C241.352 143.933 240.152 140.8 237.752 138.4C235.352 136 232.152 133.933 228.152 132.2C224.285 130.467 219.952 128.8 215.152 127.2C210.485 125.6 205.818 123.8 201.152 121.8C196.485 119.667 192.152 117.067 188.152 114C184.285 110.8 181.152 106.867 178.752 102.2C176.352 97.4 175.152 91.4 175.152 84.2C175.152 75.5333 177.218 68.0667 181.352 61.8C185.618 55.5333 191.485 50.8 198.952 47.6C206.418 44.2667 215.018 42.6 224.752 42.6C234.618 42.6 243.618 44.3333 251.752 47.8C260.018 51.2667 266.818 56 272.152 62L251.752 82.2C247.485 77.8 243.152 74.5333 238.752 72.4C234.485 70.2667 229.618 69.2 224.152 69.2C218.685 69.2 214.352 70.2667 211.152 72.4C207.952 74.4 206.352 77.3333 206.352 81.2C206.352 84.8 207.552 87.7333 209.952 90C212.352 92.1333 215.485 94 219.352 95.6C223.352 97.2 227.685 98.8 232.352 100.4C237.152 102 241.885 103.867 246.552 106C251.218 108.133 255.485 110.867 259.352 114.2C263.352 117.4 266.552 121.533 268.952 126.6C271.352 131.533 272.552 137.667 272.552 145C272.552 158.467 267.752 169.067 258.152 176.8C248.552 184.4 235.285 188.2 218.352 188.2ZM323.767 188C314.834 188 306.834 185.8 299.767 181.4C292.834 177 287.301 171 283.167 163.4C279.167 155.8 277.167 147.133 277.167 137.4C277.167 127.667 279.167 119 283.167 111.4C287.301 103.8 292.834 97.8 299.767 93.4C306.834 89 314.834 86.8 323.767 86.8C330.301 86.8 336.167 88.0667 341.367 90.6C346.701 93.1333 351.034 96.6667 354.367 101.2C357.701 105.6 359.567 110.667 359.967 116.4V158.4C359.567 164.133 357.701 169.267 354.367 173.8C351.167 178.2 346.901 181.667 341.567 184.2C336.234 186.733 330.301 188 323.767 188ZM329.967 160.4C336.501 160.4 341.767 158.267 345.767 154C349.767 149.6 351.767 144.067 351.767 137.4C351.767 132.867 350.834 128.867 348.967 125.4C347.234 121.933 344.701 119.267 341.367 117.4C338.167 115.4 334.434 114.4 330.167 114.4C325.901 114.4 322.101 115.4 318.767 117.4C315.567 119.267 312.967 121.933 310.967 125.4C309.101 128.867 308.167 132.867 308.167 137.4C308.167 141.8 309.101 145.733 310.967 149.2C312.834 152.667 315.434 155.4 318.767 157.4C322.101 159.4 325.834 160.4 329.967 160.4ZM350.567 186V159.8L355.167 136.2L350.567 112.6V88.8H380.567V186H350.567ZM408.513 186V80.4C408.513 72.5333 410.246 65.4667 413.713 59.2C417.313 52.8 422.313 47.8 428.713 44.2C435.113 40.4667 442.713 38.6 451.513 38.6C458.179 38.6 463.979 39.7333 468.913 42C473.979 44.1333 478.379 47.1333 482.113 51L462.913 70.2C461.579 68.8667 460.046 67.8667 458.313 67.2C456.713 66.4 454.779 66 452.513 66C448.379 66 445.113 67.2 442.713 69.6C440.313 72 439.113 75.2667 439.113 79.4V186H408.513ZM387.113 114.8V88.8H467.113V114.8H387.113ZM520.422 188.2C511.489 188.2 503.555 186.4 496.622 182.8C489.822 179.067 484.489 174 480.622 167.6C476.755 161.067 474.822 153.6 474.822 145.2V88.8H505.422V144.8C505.422 148.133 505.955 151 507.022 153.4C508.222 155.8 509.955 157.667 512.222 159C514.489 160.333 517.222 161 520.422 161C524.955 161 528.555 159.6 531.222 156.8C533.889 153.867 535.222 149.867 535.222 144.8V88.8H565.822V145C565.822 153.533 563.889 161.067 560.022 167.6C556.155 174 550.822 179.067 544.022 182.8C537.222 186.4 529.355 188.2 520.422 188.2ZM579.034 186V40.8H609.634V186H579.034ZM651.983 134.6V110.2H682.383C686.249 110.2 689.783 109.4 692.983 107.8C696.183 106.2 698.716 103.867 700.583 100.8C702.449 97.7333 703.383 94 703.383 89.6C703.383 85.3333 702.449 81.6667 700.583 78.6C698.716 75.5333 696.183 73.2 692.983 71.6C689.783 70 686.249 69.2 682.383 69.2H651.983V44.8H686.983C695.916 44.8 703.983 46.6 711.183 50.2C718.383 53.8 724.049 59 728.183 65.8C732.449 72.4667 734.583 80.4 734.583 89.6C734.583 98.8 732.449 106.8 728.183 113.6C724.049 120.267 718.383 125.467 711.183 129.2C703.983 132.8 695.916 134.6 686.983 134.6H651.983ZM627.983 186V44.8H659.383V186H627.983ZM781.267 188C772.334 188 764.334 185.8 757.267 181.4C750.334 177 744.801 171 740.667 163.4C736.667 155.8 734.667 147.133 734.667 137.4C734.667 127.667 736.667 119 740.667 111.4C744.801 103.8 750.334 97.8 757.267 93.4C764.334 89 772.334 86.8 781.267 86.8C787.801 86.8 793.667 88.0667 798.867 90.6C804.201 93.1333 808.534 96.6667 811.867 101.2C815.201 105.6 817.067 110.667 817.467 116.4V158.4C817.067 164.133 815.201 169.267 811.867 173.8C808.667 178.2 804.401 181.667 799.067 184.2C793.734 186.733 787.801 188 781.267 188ZM787.467 160.4C794.001 160.4 799.267 158.267 803.267 154C807.267 149.6 809.267 144.067 809.267 137.4C809.267 132.867 808.334 128.867 806.467 125.4C804.734 121.933 802.201 119.267 798.867 117.4C795.667 115.4 791.934 114.4 787.667 114.4C783.401 114.4 779.601 115.4 776.267 117.4C773.067 119.267 770.467 121.933 768.467 125.4C766.601 128.867 765.667 132.867 765.667 137.4C765.667 141.8 766.601 145.733 768.467 149.2C770.334 152.667 772.934 155.4 776.267 157.4C779.601 159.4 783.334 160.4 787.467 160.4ZM808.067 186V159.8L812.667 136.2L808.067 112.6V88.8H838.067V186H808.067ZM883.613 186.4L843.613 88.8H876.613L902.013 166.2H889.813L915.813 88.8H948.813L907.213 186.4H883.613ZM858.613 227L887.813 164L907.213 186.4L890.013 227H858.613Z" fill="#126100"/>
<path d="M0 68C22.0914 68 40 85.9086 40 108V144H28L40 160V188C17.9086 188 0 170.091 0 148V68Z" fill="#126100"/>
<path d="M92 42C114.091 42 132 59.9086 132 82V162C109.909 162 92 144.091 92 122V86H104L92 70V42Z" fill="#126100"/>
<path d="M46 0C68.0914 0 86 17.9086 86 40V70L74 86H86V234C63.9086 234 46 216.091 46 194V160L58 144H46V0Z" fill="#126100"/>
</svg>
