<?xml version="1.0" encoding="utf-8" ?><svg xmlns="http://www.w3.org/2000/svg" xmlns:xlink="http://www.w3.org/1999/xlink" width="900" height="200" viewBox="0 0 900 200"><path fill="#FEFEFE" d="M258.304 53.9828C266.95 54.2066 275.78 53.7644 284.403 54.2116C285.221 55.6404 286.007 57.4357 286.617 58.9598C294.016 77.4399 300.594 96.3041 308.099 114.731C311.054 108.124 314.034 99.3034 316.65 92.405C321.598 79.6841 326.429 66.9183 331.144 54.1092C340.039 54.2354 348.936 54.2205 357.83 54.0645L357.945 142.279C351.584 142.527 344.214 142.383 337.774 142.415C337.164 133.343 337.56 120.073 337.597 110.677L337.664 85.008C335.541 89.4912 333.416 95.7597 331.488 100.472C325.882 114.179 321.157 128.673 315.544 142.324L300.773 142.406C292.74 123.584 286.391 102.947 278.341 84.2645C278.759 91.5017 278.591 99.8103 278.603 107.169L278.732 142.324C272.036 142.49 265.132 142.422 258.418 142.434C257.742 135.93 258.236 120.205 258.239 113.059L258.304 53.9828Z"/><path fill="#829FA7" d="M694.863 73.978C707.019 72.8591 712.926 76.1418 719.629 86.1337C719.515 82.6031 719.663 78.732 719.73 75.175C726.895 75.6636 732.521 75.5452 739.661 75.1331C738.797 90.7603 740.018 109.221 739.428 125.082C739.239 132.306 739.777 139.598 738.719 146.766C735.591 167.97 714.56 173.84 695.96 170.752C686.526 169.186 680.468 165.525 674.922 157.761C673.754 155.442 671.733 151.958 672.073 149.407C673.326 148.324 688.054 148.63 690.744 148.622C696.595 156.794 707.276 158.93 715.449 152.052C720.466 147.83 719.401 137.032 719.284 130.796C718.521 131.98 717.698 133.214 716.879 134.355C709.115 145.166 692.176 144.607 682.216 137.383C675.378 132.402 671.716 124.088 670.466 115.923C667.686 97.7558 674.602 77.0838 694.863 73.978ZM707.183 125.85C726.919 121.127 721.207 89.3991 703.451 91.1486C699.629 91.6226 695.388 92.9107 693.293 96.3321C685.72 108.697 690.209 126.775 707.183 125.85Z"/><path fill="#95CF31" d="M136.753 59.6336L137.735 59.88C138.708 59.1616 141.433 56.1765 141.325 56.1951C144.964 55.5682 150.722 56.335 154.455 56.7914C154.753 56.8278 155.551 55.4196 156.752 55.6161C159.932 56.136 161.793 60.5434 163.938 62.662C165.119 63.8281 165.518 62.7508 166.262 63.3456C165.521 64.1502 161.683 68.4698 161.064 68.6839L160.752 67.3609C158.572 68.3332 157.894 72.6832 156.215 74.4366C155.398 75.2907 153.217 76.866 152.957 77.8204L153.679 77.9636C152.061 80.3369 140.818 91.9269 138.062 94.8434L119.065 114.779C115.654 118.326 112.325 122.123 108.637 125.37C106.846 126.946 104.769 128.483 102.442 129.116C99.0933 130.026 71.1805 108.866 66.166 105.853C61.613 108.537 56.2995 113.867 52.0278 117.254C40.5137 126.385 28.9454 137.638 17.3476 146.342C17.1685 141.914 17.0952 136.095 17.3345 131.739C19.3621 129.244 22.5542 126.467 24.9336 124.146C30.7915 118.402 36.731 112.741 42.7504 107.165C49.2412 101.046 55.2812 94.4059 61.956 88.497C63.5524 87.0838 65.9553 84.8011 68.0054 84.1396C70.8559 83.2197 94.6145 97.7488 99.1497 100.064C102.629 96.6928 105.58 92.7776 108.813 89.5033C114.737 83.5031 120.244 77.6327 125.869 71.4123C128.158 68.8813 134.788 61.0693 136.753 59.6336Z"/><path fill="#FEFEFE" d="M489.245 51.0046C496.226 51.1794 502.634 51.1001 509.617 50.9456C509.647 64.8785 510.338 88.5641 509.288 101.769C516.196 93.7004 523.034 83.0621 530.118 75.1936C538.332 75.263 546.546 75.2329 554.758 75.1031C545.743 84.7598 536.655 95.5209 527.938 105.511C533.863 113.292 539.699 121.14 545.446 129.053C548.926 133.302 551.723 137.787 555.488 142.065C549.992 142.671 537.043 142.484 531.284 142.321C524.468 133.775 516.75 121.688 509.8 112.468C509.698 122.405 509.678 132.343 509.74 142.28C503.596 142.602 495.715 142.428 489.441 142.449C488.639 135.367 489.108 115.76 489.143 107.736C489.222 89.2319 488.747 69.4005 489.245 51.0046Z"/><path fill="#FEFEFE" d="M399.077 73.581C399.232 73.5735 399.387 73.571 399.541 73.5734C414.225 73.9295 428.973 80.4527 429.335 96.6C429.663 111.244 430.103 127.66 429.586 142.192C423.935 142.601 415.503 142.387 409.656 142.406C409.448 138.958 409.545 136.348 409.693 132.885C400.37 146.118 380.007 147.693 370.363 134.614C366.456 128.743 365.947 119.155 369.904 113.212C378.298 100.606 396.357 103.151 408.971 100.184C408.926 99.3865 408.836 98.4952 408.804 97.7319C408.444 89.1892 398.098 86.9115 392.015 91.4793C390.05 92.9555 389.467 94.1361 388.254 96.1317C382.647 96.543 375.236 96.3694 369.595 96.3466C371.548 78.883 383.606 74.9063 399.077 73.581ZM389.762 127.641C396.976 130.827 404.469 129.402 407.983 121.79C409.251 119.043 409.007 115.969 408.786 113.017L408.384 112.641C401.744 114.169 392.163 113.547 387.607 119.282C385.799 121.557 387.793 125.968 389.762 127.641Z"/><path fill="#FEFEFE" d="M584.313 73.5732C585.287 73.4741 586.265 73.4388 587.243 73.4675C602.922 73.9185 615.709 82.2895 619.043 98.2799C620.165 103.661 619.993 108.354 619.839 113.784C607.636 113.302 584.519 113.403 572.321 113.956C573.267 117.907 574.286 121.96 577.736 124.441C585.734 130.194 594.003 128.413 599.84 121.332C605.383 121.065 612.562 121.27 618.239 121.24C618.563 121.594 618.515 121.843 618.619 122.381C612.05 144.571 582.366 149.549 565.325 136.6C546.492 122.288 549.194 83.8355 573.373 76.0418C577.593 74.6815 579.778 74.1778 584.313 73.5732ZM572.785 101.07C578.153 101.152 585.797 101.497 590.955 101.306C594.184 101.185 597.333 101.377 600.4 101.279C597.727 91.6727 593.653 89.1173 583.74 89.7143C576.567 92.0742 575.088 93.7478 572.785 101.07Z"/><path fill="#829FA7" d="M802.273 74.0111C819.524 72.2421 834.575 77.6469 837.533 96.2977C831.58 95.9499 825.272 96.4306 819.032 96.0356C817.969 94.0647 817.114 92.3012 815.318 90.8962C812.723 88.8996 809.435 88.0307 806.193 88.485C803.258 88.8759 798.388 91.1621 799.108 94.908C800.202 99.7118 807.602 100.56 811.542 101.472C822.34 103.97 836.157 105.578 838.18 118.975C838.998 124.153 837.72 129.443 834.629 133.675C830.032 139.892 822.103 142.109 814.854 143.195C806.384 144.025 796.066 143.357 788.755 138.801C781.527 134.296 779.713 129.104 777.788 121.317L797.3 121.461C797.637 122.461 798.084 123.536 798.582 124.493C800.898 130.066 813.677 131.009 816.997 126.387C820.868 120.997 813.344 117.817 809.651 117.021C797.661 114.436 781.286 112.768 779.726 97.5908C778.237 83.1028 789.127 75.3193 802.273 74.0111Z"/><path fill="#FEFEFE" d="M632.203 58.0559C636.617 58.7113 648.44 58.3221 653 57.9981C652.884 63.7124 652.724 69.4257 652.521 75.1376L665.389 75.1565C665.495 80.3771 665.583 85.3072 665.447 90.5271C661.237 90.6008 656.776 90.5187 652.544 90.5031C653.542 99.7043 652.374 109.764 652.909 119.069C653.403 127.661 658.03 126.868 664.898 126.098L664.894 138.571L664.862 142.471C645.63 143.894 632.028 141.364 632.301 118.505C632.411 109.343 632.317 99.6641 632.346 90.4561L622.685 90.5265C622.375 85.0403 622.429 80.225 622.507 74.7197C625.481 74.7369 628.979 74.9709 631.992 75.0941C632.207 69.4274 631.846 63.9241 632.203 58.0559Z"/><path fill="#829FA7" d="M851.766 58.1494C856.671 58.5275 866.69 58.595 871.514 58.1091C871.05 64.2176 871.041 68.9888 871.315 75.0415C875.396 74.8712 879.709 74.8781 883.811 74.8177C883.713 79.9996 883.829 85.5098 883.852 90.7174C880.357 90.5021 874.88 90.6364 871.207 90.6224C871.121 99.8441 870.936 109.465 871.121 118.691C871.162 120.716 872.084 124.287 873.691 125.634C875.865 127.457 880.688 126.602 883.431 126.347C883.2 131.405 883.244 136.147 883.288 141.209L883.276 141.875C882.109 142.908 876.209 142.626 874.408 142.738C865.411 143.297 853.164 139.319 851.74 128.874C850.091 116.774 850.797 102.959 850.834 90.4951C847.131 90.2808 845.201 90.3 841.503 90.5871C841.46 85.3495 841.341 80.1127 841.146 74.8785C844.076 74.8193 847.624 75.0808 850.599 75.2282C850.812 70.1693 850.526 64.7332 850.801 59.6695C850.857 58.6308 851.03 58.7017 851.766 58.1494Z"/><defs><linearGradient id="gradient_0" gradientUnits="userSpaceOnUse" x1="178.03232" y1="170.64206" x2="154.62119" y2="82.395798"><stop offset="0" stop-color="#4B585F"/><stop offset="1" stop-color="#6A8D9B"/></linearGradient></defs><path fill="url(#gradient_0)" d="M150.562 99.7749C158.648 91.7429 166.879 83.2991 175.047 75.4238C175.079 79.2955 174.769 107.009 175.46 109.171L175.19 111.269C174.762 116.656 175.383 123.193 175.305 128.69C175.139 140.432 175.682 152.731 175.313 164.402C174.262 166.051 174.047 166.576 173.403 168.429L172.631 168.273C166.71 172.768 162.456 177.927 157.926 181.529C157.362 179.981 158.436 178.6 158.186 176.715C157.803 173.82 157.085 170.737 156.114 167.999C156.02 169.491 155.894 172.813 155.616 174.14C155.627 177.04 155.772 191.489 155.27 193.43C154.179 193.9 154.631 193.875 153.444 193.467C151.911 191.399 152.877 184.598 152.845 181.673C152.748 172.76 152.997 163.832 152.641 154.918C155.538 151.969 160.533 147.162 162.43 143.803C159.718 143.185 159.272 144.483 157.4 146.463L156.498 145.537C157.416 144.003 157.476 143.448 157.794 141.677C158.888 140.883 158.584 140.119 158.282 139.04C156.997 137.543 156.596 137.442 154.652 137.036L154.286 136.785C151.382 137.523 153.021 135.398 150.947 134.498L149.079 136.866C146.144 139.751 142.4 142.921 139.683 145.778C139.701 147.278 139.511 154.126 140.041 154.905C138.015 155.368 137.66 155.571 135.977 156.798C136.286 155.141 136.39 146.967 136.626 144.334C140.477 140.943 144.838 137.259 148.005 133.224C148.548 132.099 148.513 104.326 147.924 102.747C148.272 101.868 149.814 100.507 150.562 99.7749Z"/><path fill="#829FA7" d="M162.532 132.473C154.838 126.686 167.009 121.973 167.574 128.832C167.659 129.868 167.324 130.559 166.544 131.313C164.32 133.464 165.28 141.974 165.351 144.999C163.051 148.843 158.7 153.092 155.564 156.54C155.494 161.168 155.186 169.6 155.616 174.14C155.627 177.04 155.772 191.489 155.27 193.43C154.179 193.9 154.631 193.875 153.444 193.467C151.911 191.399 152.877 184.598 152.845 181.673C152.748 172.76 152.997 163.832 152.641 154.918C155.538 151.969 160.533 147.162 162.43 143.803C162.926 141.504 162.597 135.122 162.532 132.473Z"/><defs><linearGradient id="gradient_1" gradientUnits="userSpaceOnUse" x1="136.00708" y1="128.44553" x2="150.95581" y2="127.81821"><stop offset="0" stop-color="#6C99AB"/><stop offset="1" stop-color="#7EB9C1"/></linearGradient></defs><path fill="url(#gradient_1)" d="M150.562 99.7749C150.633 105.33 149.839 131.148 150.947 134.498L149.079 136.866C146.144 139.751 142.4 142.921 139.683 145.778C139.701 147.278 139.511 154.126 140.041 154.905C138.015 155.368 137.66 155.571 135.977 156.798C136.286 155.141 136.39 146.967 136.626 144.334C140.477 140.943 144.838 137.259 148.005 133.224C148.548 132.099 148.513 104.326 147.924 102.747C148.272 101.868 149.814 100.507 150.562 99.7749Z"/><path fill="#8FEBFC" d="M165.804 111.728C165.259 113.101 163.833 113.911 162.375 113.677C160.916 113.443 159.815 112.228 159.726 110.753C159.637 109.278 160.583 107.939 162.003 107.531C163.422 107.123 164.935 107.755 165.642 109.052C166.091 109.876 166.151 110.856 165.804 111.728Z"/><path fill="#80BBC8" d="M165.642 109.052C168.618 109.574 172.366 109.276 175.46 109.171L175.19 111.269C172.708 111.205 167.998 110.928 165.804 111.728C166.151 110.856 166.091 109.876 165.642 109.052Z"/><path fill="#B0F23B" d="M159.664 34.5113C156.772 32.5247 146.325 25.729 144.34 23.8325L144.463 23.3055C145.974 22.4374 149.815 21.1019 151.551 20.8644C158.525 19.9109 192.642 6.61272 196.787 7.58806C198.514 9.98291 194.855 61.2124 193.131 63.0802C191.601 62.9974 180.877 52.7734 179.335 51.055C179.184 50.888 179.036 50.7188 178.89 50.5476C176.75 53.3505 155.529 76.9364 153.679 77.9636L152.957 77.8204C153.217 76.866 155.398 75.2907 156.215 74.4366C157.894 72.6832 158.572 68.3332 160.752 67.3609L161.064 68.6839C161.683 68.4698 165.521 64.1502 166.262 63.3456C165.518 62.7508 165.119 63.8281 163.938 62.662C161.793 60.5434 159.932 56.136 156.752 55.6161C155.551 55.4196 154.753 56.8278 154.455 56.7914C150.722 56.335 144.964 55.5682 141.325 56.1951C141.433 56.1765 138.708 59.1616 137.735 59.88L136.753 59.6336C141.737 53.9991 146.786 48.4232 151.9 42.9069C153.977 40.6386 157.513 36.4734 159.664 34.5113Z"/><path fill="#FEFEFE" d="M475.55 73.9869C477.177 73.7057 480.012 73.8374 481.531 74.5881C483.1 76.7437 482.232 90.1674 482.041 93.4347C462.645 90.2924 460.144 98.6439 460.69 115.213C460.955 123.252 460.984 134.264 460.536 142.228C457.953 142.431 443.346 142.991 440.543 141.802C440.361 141.725 440.402 140.694 440.39 140.327C439.914 134.05 440.176 124.193 440.169 117.616L440.04 75.1728C445.58 75.489 454.949 75.2737 460.488 75.1276C460.569 78.7488 460.503 82.5508 460.496 86.1871C464.38 78.7583 466.856 75.2806 475.55 73.9869Z"/><path fill="#829FA7" d="M750.165 75.1171C756.982 75.4764 763.179 75.6452 770.001 75.3162L769.98 116.917C769.999 125.032 769.82 134.216 770.249 142.253C764.205 141.843 756.465 142.064 750.288 142.085C749.82 120.303 750.187 97.0343 750.165 75.1171Z"/><path fill="#536F7A" d="M139.17 111.155C141.428 108.663 145.385 105.146 147.924 102.747C148.513 104.326 148.548 132.099 148.005 133.224L147.383 132.466C142.923 135.397 135.209 142.107 133.356 147.114L132.904 146.796C132.696 145.069 132.685 144.171 131.747 142.717C131.211 143.63 131.101 147.468 131.011 148.759L130.876 155.756L130.795 158.423L130.437 161.552C129.373 161.176 128.732 161.206 127.629 161.173C128.231 159.892 127.88 152.409 127.833 150.45C127.542 148.853 127.446 144.913 127.362 143.108C125.592 144.771 120.509 150.766 119.237 151.577L118.692 151.416C118.228 146.439 124.427 147.379 113.711 141.739C111.91 142.976 110.805 144.484 109.419 145.23C108.01 145.105 107.912 144.474 106.697 143.143L104.922 142.319C105.006 142.329 105.09 142.336 105.174 142.342C108.361 142.569 111.998 138.399 114.162 136.257C118.305 132.157 122.268 128.033 126.69 124.217C129.295 120.935 132.233 118.29 135.316 115.474C136.725 113.723 137.59 112.752 139.17 111.155Z"/><path fill="#536F7A" d="M126.69 124.217C127.843 125.33 128.326 125.463 128.339 127.308C128.34 127.426 128.337 127.543 128.328 127.66C127.722 134.641 128.817 142.096 127.833 150.45C127.542 148.853 127.446 144.913 127.362 143.108C125.592 144.771 120.509 150.766 119.237 151.577L118.692 151.416C118.228 146.439 124.427 147.379 113.711 141.739C111.91 142.976 110.805 144.484 109.419 145.23C108.01 145.105 107.912 144.474 106.697 143.143L104.922 142.319C105.006 142.329 105.09 142.336 105.174 142.342C108.361 142.569 111.998 138.399 114.162 136.257C118.305 132.157 122.268 128.033 126.69 124.217Z"/><path fill="#829FA7" d="M128.328 127.66C128.785 125.989 129.033 125.078 129.759 123.512L130.246 123.8C130.371 124.833 130.574 126.683 130.546 127.815C131.035 128.218 131.524 128.62 132.013 129.023C131.993 131.077 130.983 135.615 130.841 137.457C130.594 140.664 130.677 145.713 131.011 148.759L130.876 155.756L130.795 158.423L130.437 161.552C129.373 161.176 128.732 161.206 127.629 161.173C128.231 159.892 127.88 152.409 127.833 150.45C128.817 142.096 127.722 134.641 128.328 127.66Z"/><path fill="#829FA7" d="M139.17 111.155C140.189 113.295 140.242 133.685 138.436 135.443L137.48 135.511C134.722 133.053 139.895 119.811 135.316 115.474C136.725 113.723 137.59 112.752 139.17 111.155Z"/><path fill="#536F7A" d="M66.9616 121.261C71.1895 123.171 73.9477 125.048 77.569 127.902C77.6511 130.978 77.9823 137.016 77.7293 139.868C77.6105 138.715 77.4829 136.756 77.0985 135.744C76.4688 137.08 75.8434 138.986 75.5014 140.434C74.9742 142.666 73.6455 140.856 72.4955 141.234L69.11 141.46L69.115 140.958L67.8877 141.584C66.448 141.316 67.6984 140.614 66.239 139.962C64.9854 141.121 64.163 141.492 63.892 143.282C63.2613 147.447 63.806 151.636 63.7659 155.844L63.7123 157.225C63.5822 159.927 63.3541 163.052 63.3313 165.721C59.581 170.516 55.1635 175.123 51.0026 179.597L47.0292 183.731C47.0765 187.121 47.0381 190.943 47.1841 194.293L45.0553 193.845C43.6927 192.468 44.3825 184.316 44.3896 181.895C48.3544 178.001 60.257 167.568 60.762 162.894C60.6932 158.264 60.5122 153.636 60.2191 149.015C56.9938 153.325 57.9194 151.817 56.6192 157.325L56.3708 157.199C56.0999 155.169 55.8765 153.424 55.4152 151.416L55.0999 151.521L54.5337 154.341C54.1098 161.332 58.6769 161.387 56.684 165.102C54.6717 166.576 51.6364 166.18 50.2038 164.144C49.638 163.346 49.43 162.349 49.6297 161.391C49.879 160.134 51.2094 158.786 52.0666 157.84C53.1749 156.439 52.1572 136.398 51.348 134.045C52.0841 133.107 53.3369 132.151 54.2859 131.366C57.8433 128.199 62.9466 123.399 66.9616 121.261Z"/><defs><linearGradient id="gradient_2" gradientUnits="userSpaceOnUse" x1="62.214638" y1="168.64299" x2="45.500145" y2="156.73259"><stop offset="0" stop-color="#608C97"/><stop offset="1" stop-color="#84C0CE"/></linearGradient></defs><path fill="url(#gradient_2)" d="M58.7677 138.99C58.4649 133.944 65.2768 131.732 66.239 139.962C64.9854 141.121 64.163 141.492 63.892 143.282C63.2613 147.447 63.806 151.636 63.7659 155.844L63.7123 157.225C63.5822 159.927 63.3541 163.052 63.3313 165.721C59.581 170.516 55.1635 175.123 51.0026 179.597L47.0292 183.731C47.0765 187.121 47.0381 190.943 47.1841 194.293L45.0553 193.845C43.6927 192.468 44.3825 184.316 44.3896 181.895C48.3544 178.001 60.257 167.568 60.762 162.894C61.7577 159.418 61.1825 146.593 61.1659 142.053L58.7677 138.99Z"/><path fill="#829FA7" d="M51.348 134.045C52.0841 133.107 53.3369 132.151 54.2859 131.366C55.1169 134.119 54.7432 137.445 54.5454 140.346C54.3234 144.622 54.1226 150.061 54.5337 154.341C54.1098 161.332 58.6769 161.387 56.684 165.102C54.6717 166.576 51.6364 166.18 50.2038 164.144C49.638 163.346 49.43 162.349 49.6297 161.391C49.879 160.134 51.2094 158.786 52.0666 157.84C53.1749 156.439 52.1572 136.398 51.348 134.045Z"/><defs><linearGradient id="gradient_3" gradientUnits="userSpaceOnUse" x1="72.286362" y1="122.0992" x2="86.893311" y2="30.123264"><stop offset="0" stop-color="#2B5E74"/><stop offset="1" stop-color="#4E7E8A"/></linearGradient></defs><path fill="url(#gradient_3)" d="M135.395 37.3066C135.901 37.2843 136.408 37.2894 136.913 37.3221C143.456 37.8021 143.509 44.251 138.595 48.3398C137.302 48.5532 135.329 48.5575 133.965 48.6005C123.205 59.622 108.745 77.9621 97.7381 87.6235C92.5916 85.7751 72.8672 73.4928 67.7877 70.1753C65.6667 71.5536 64.4406 72.5424 62.614 74.2983C49.0871 87.3023 34.8977 99.5493 21.0902 112.235C20.8595 112.474 20.6267 112.711 20.3916 112.945C19.1298 114.203 18.8766 114.62 17.3552 114.618L16.6514 113.782C16.6604 113.213 16.7635 112.657 17.0317 112.152C18.6088 109.185 56.4709 74.8024 61.8953 70.4779C63.2111 69.4289 64.7127 68.3922 66.34 67.9185C67.4805 67.5866 68.2921 67.7015 69.374 68.1457C72.7396 69.5273 75.9251 72.0219 79.0597 73.8863C84.9632 77.3433 90.9027 80.7385 96.877 84.0715C100.828 79.677 105.113 75.4726 109.048 71.0385C116.534 62.6025 123.719 54.3664 131.736 46.4151C130.884 41.6746 131.012 39.6203 135.395 37.3066ZM137.063 45.7808C138.074 44.6788 138.573 44.2527 138.96 42.8039C138.66 40.6229 138.143 40.5398 136.188 39.6832C135.089 40.8972 134.668 41.2565 134.462 42.868C134.938 44.6705 135.197 45.1376 137.063 45.7808Z"/><defs><linearGradient id="gradient_4" gradientUnits="userSpaceOnUse" x1="73.18882" y1="85.685791" x2="64.591797" y2="40.467186"><stop offset="0" stop-color="#33637D"/><stop offset="1" stop-color="#477C8F"/></linearGradient></defs><path fill="url(#gradient_4)" d="M113.78 30.359C117.649 30.0267 123.049 31.4813 122.625 37.2401C122.091 44.4785 113.673 41.9355 112.224 43.0163C105.786 47.8192 94.558 62.3397 88.3264 66.9735C86.8283 66.4721 85.4027 66.1041 83.8387 65.8947C74.9741 64.708 66.3715 62.5521 57.6004 60.8189C45.9606 71.8057 34.2295 82.6955 22.4084 93.487C22.0147 93.8827 21.618 94.2754 21.2185 94.6652C19.8339 96.0142 19.0062 97.0757 16.9899 97.05C16.7606 96.8053 16.2302 96.365 16.3255 96.0943C17.9296 91.5417 27.226 84.4516 30.5833 81.3777L56.1942 57.5941C67.8943 60.901 75.7096 62.5816 87.7052 63.6097C89.5548 61.8184 92.2731 58.5876 94.2122 56.541C99.4177 51.0117 104.718 45.5721 110.11 40.2247C109.124 35.3357 109.489 33.1797 113.78 30.359ZM116.237 39.7837C117.456 39.7085 118.526 38.9448 118.994 37.8158C119.461 36.6868 119.245 35.39 118.436 34.4744C117.627 33.5588 116.366 33.1844 115.189 33.5098C113.611 33.9459 112.617 35.5039 112.887 37.119C113.157 38.7342 114.603 39.8845 116.237 39.7837Z"/><path fill="#FE9D1D" d="M758.645 44.3856C764.664 43.4211 770.352 47.4396 771.456 53.4363C772.559 59.4329 768.674 65.2138 762.706 66.4561C758.721 67.2858 754.599 65.8913 751.935 62.8123C749.271 59.7333 748.484 55.4527 749.877 51.6268C751.27 47.8009 754.626 45.0297 758.645 44.3856Z"/><path fill="#829FA7" d="M77.569 127.902C78.7843 128.742 80.3691 129.706 81.1926 130.891C80.6652 134.15 80.5329 152.778 80.8507 156.345L81.1911 156.806C81.3816 161.374 81.2193 166.753 81.1772 171.392C75.9132 177.413 69.9614 182.899 64.5577 188.806C63.0214 190.486 62.6953 193.33 60.5863 194.114C59.9755 193.114 59.9382 190.346 60.6049 189.461C65.9792 182.324 73.3488 177.275 78.6192 169.882C78.1264 160.14 78.152 149.817 77.7293 139.868C77.9823 137.016 77.6511 130.978 77.569 127.902Z"/><defs><linearGradient id="gradient_5" gradientUnits="userSpaceOnUse" x1="71.082191" y1="176.34525" x2="54.031986" y2="158.3936"><stop offset="0" stop-color="#5D8E96"/><stop offset="1" stop-color="#82B3C6"/></linearGradient></defs><path fill="url(#gradient_5)" d="M72.4955 141.234L74.1758 142.782C75.3614 144.117 75.2447 143.646 75.5845 145.31C75.1158 146.971 74.0365 147.789 72.7848 148.951C72.9568 155.684 72.4029 161.929 72.4782 168.398C66.9206 174.504 60.2373 180.744 54.9205 186.776C55.1065 188.731 55.7544 192.196 54.6722 193.664C53.715 194.099 52.9642 193.996 51.9598 193.651C52.6126 189.228 50.8521 186.537 54.4991 183.176C59.6756 178.133 64.8956 172.731 70.0061 167.59C69.8217 162.584 71.118 149.767 68.4606 146.735C67.8378 146.146 67.7618 145.015 67.6022 144.132L69.11 141.46L72.4955 141.234Z"/><path fill="#80BBC8" d="M72.4955 141.234L74.1758 142.782C70.8198 145.342 70.385 143.685 67.6022 144.132L69.11 141.46L72.4955 141.234Z"/><path fill="#536F7A" d="M48.4666 43.1488C51.8439 42.6032 61.5522 42.9208 64.7628 44.1666L64.9711 44.7032C62.4966 46.0701 53.6796 45.7147 50.5252 45.7155C48.7336 46.8261 40.3411 53.4943 38.7455 55.4726C38.6146 55.635 38.8734 56.0764 38.9912 56.3523C39.284 59.9279 38.3765 64.8985 33.6343 64.0258C31.7873 63.6942 30.1526 62.6301 29.1014 61.0753C24.9918 55.0055 30.4701 52.5011 36.2453 53.6826C39.1563 50.6374 45.123 45.8096 48.4666 43.1488Z"/><path fill="#829FA7" d="M154.652 137.036C156.596 137.442 156.997 137.543 158.282 139.04C158.584 140.119 158.888 140.883 157.794 141.677C154.294 143.3 150.778 148.235 148.347 149.666C146.287 152.698 149.483 190.923 147.285 193.453C145.849 193.588 146.231 193.765 145.272 193.062C144.787 190.303 145.091 179.052 145.084 175.655C145.065 167.017 144.647 157.689 145.049 149.13L150.746 143.443C152.079 142.751 153.612 138.774 154.652 137.036Z"/><path fill="#829FA7" d="M86.5414 141.11C86.5348 139.392 86.3075 135.978 87.015 134.598L90.206 137.249C89.1478 138.804 89.4003 138.201 89.2522 140.136C89.1826 144.726 89.1416 149.317 89.1292 153.908C89.0997 160.327 89.6908 169.029 89.4186 175.045C91.2244 176.736 93.882 179.389 95.7144 180.899C96.3128 181.526 97.5763 182.912 98.1907 183.393C99.7098 184.981 106.87 191.966 107.101 193.337L106.208 193.593C103.385 193.126 99.1307 188.069 96.8754 185.84C93.5566 182.533 90.1239 179.343 86.5834 176.275L86.5156 161.768C87.0092 157.384 86.6067 145.978 86.5414 141.11Z"/><path fill="#829FA7" d="M112.55 150.829L113.044 150.582C113.523 150.984 114.498 151.85 114.986 152.143C115.32 153.183 115.146 158.243 115.128 159.657C120.984 165.598 126.808 171.57 132.601 177.573C132.307 181.221 133.218 191.876 131.45 193.755L130.465 193.746C129.349 192.553 129.78 181.208 129.795 178.919C126.108 174.212 117.23 165.209 112.934 160.644C112.736 157.838 113.154 153.307 112.55 150.829Z"/><path fill="#536F7A" d="M90.206 137.249C94.091 140.376 98.0991 142.917 103.139 143.721L102.816 144.298C98.5372 146.102 99.6465 149.757 99.8115 153.765C94.9816 151.187 95.024 150.955 90.5576 154.175C90.9526 151.739 91.4339 141.504 90.0093 139.918L89.2522 140.136C89.4003 138.201 89.1478 138.804 90.206 137.249Z"/><path fill="#829FA7" d="M104.922 142.319L106.697 143.143C105.92 146.78 105.998 162.422 105.962 167.071C107.539 168.746 117.863 179.945 119.133 180.537C118.216 182.206 118.286 183.193 118.21 185.11C118.091 184.415 117.77 182.732 117.387 182.28C113.429 177.602 107.881 172.449 103.577 168.108C103.819 160.524 103.276 151.91 102.816 144.298L103.139 143.721C103.514 143.26 104.4 142.688 104.922 142.319Z"/><path fill="#829FA7" d="M40.202 144.065C38.5255 147.647 38.966 149.042 38.8274 153.023C37.8678 150.848 37.5719 148.645 36.9632 146.279C36.3672 150.966 36.5175 156.026 35.9965 160.959C37.8424 162.64 40.8332 165.452 43.0675 166.497C44.8429 167.327 44.7012 166.499 46.9716 168.041C47.3271 169.585 47.6298 170.36 47.0393 171.829C46.068 172.958 45.8197 173.12 44.4996 173.805C42.2274 172.022 36.3493 164.874 33.9237 162.293C33.5617 158.332 33.5633 153.208 33.4541 149.156L33.2893 149.417C34.6401 147.202 37.9095 145.485 40.202 144.065Z"/><path fill="#578595" d="M91.9531 18.7629C92.6115 18.8918 93.8289 19.3406 94.4004 19.6866C95.1939 20.1719 95.7575 20.9575 95.963 21.8648C96.3957 23.8246 95.0205 25.6167 93.9769 27.2453C93.8722 33.6491 94.2815 39.9187 94.5269 46.3156C94.5723 47.4992 93.6332 48.0194 92.7642 48.7827L91.1995 48.2777C89.542 45.7397 91.2544 30.8795 91.3645 26.5546C90.9918 26.1287 90.6292 25.6943 90.2768 25.2516C87.7973 22.1134 89.2842 20.8684 91.9531 18.7629Z"/><path fill="#829FA7" d="M94.9074 161.622L97.9802 160.902C97.9429 163.433 98.003 167.621 97.7586 170.015C101.53 173.812 115.913 186.179 115.899 190.826C115.895 191.944 115.814 192.951 115.092 193.81C113.811 193.323 114.125 193.378 113.229 192.133C113.054 190.759 112.983 189.725 112.93 188.341C106.92 182.616 100.92 176.631 94.9387 170.975C94.896 168.62 94.6835 163.775 94.9074 161.622Z"/><path fill="#65939E" d="M21.2644 160.438C21.2756 160.517 21.2864 160.597 21.2967 160.676C21.7723 164.361 20.2411 163.463 18.6104 165.589C19.1125 167.697 29.3568 177.238 31.5192 179.196C31.5666 183.12 31.972 187.065 31.778 190.988C31.6629 193.316 31.5272 193.397 30.0768 194.727C29.3589 194.196 28.7671 193.749 28.7061 192.823C28.4436 188.835 28.8077 184.557 28.9197 180.573C25.5494 176.846 22.3121 174.495 19.0205 170.914C16.5182 168.192 16.8022 166.441 17.1759 163.077L21.2644 160.438Z"/><defs><linearGradient id="gradient_6" gradientUnits="userSpaceOnUse" x1="131.08949" y1="191.21164" x2="136.50662" y2="162.79628"><stop offset="0" stop-color="#63909C"/><stop offset="1" stop-color="#7AAAB4"/></linearGradient></defs><path fill="url(#gradient_6)" d="M127.629 161.173C128.732 161.206 129.373 161.176 130.437 161.552C131.587 163.466 138.301 169.977 140.183 171.494C139.907 178.165 140.568 186.674 139.865 193.036C139.022 193.908 139.406 193.679 137.968 193.75C137.786 193.542 137.569 193.294 137.316 193.005C137.251 186.926 137.245 178.564 137.075 172.748C134.858 170.343 128.163 163.967 127.629 161.173Z"/><path fill="#65939E" d="M175.313 164.402C175.407 168.163 175.984 170.642 173.861 173.602C171.77 175.656 164.68 182.305 163.21 184.173C163.14 187.114 163.125 190.057 163.168 192.999C161.918 193.792 162.417 193.683 161.082 193.699C159.535 192.142 160.33 185.267 160.446 182.895C163.746 179.686 171.691 172.226 173.403 168.429C174.047 166.576 174.262 166.051 175.313 164.402Z"/><path fill="#536F7A" fill-opacity="0.98039216" d="M51.348 134.045C52.1572 136.398 53.1749 156.439 52.0666 157.84C51.2987 155.237 52.5587 148.558 49.533 146.872C48.7612 148.527 48.8637 151.402 48.485 153.455L47.9211 153.299L47.2056 151.809C47.3293 150.5 46.9594 143.715 46.4059 142.504L45.8024 142.767L45.2388 144.827C45.0144 142.336 45.5458 141.636 44.2967 139.86C46.6271 138.052 49.0953 135.964 51.348 134.045Z"/><defs><linearGradient id="gradient_7" gradientUnits="userSpaceOnUse" x1="38.027966" y1="192.46446" x2="29.978945" y2="162.43025"><stop offset="0" stop-color="#5E8996"/><stop offset="1" stop-color="#78A6B2"/></linearGradient></defs><path fill="url(#gradient_7)" d="M26.6618 166.581C25.7014 165.13 25.1791 164.21 25.9619 162.566C26.5811 162.71 26.3523 162.612 26.8736 163.174C30.7894 166.888 34.8034 170.812 38.8316 174.377C40.0271 180.069 38.7263 186.813 39.2965 192.946L38.7528 193.712L37.2997 193.826C36.1541 192.741 36.8159 178.785 36.6909 175.929C33.4254 172.873 29.9809 169.537 26.6618 166.581Z"/><path fill="#829FA7" d="M44.2967 139.86C45.5458 141.636 45.0144 142.336 45.2388 144.827L45.2924 152.368C50.0268 157.427 45.2279 161.167 41.1189 158.954C38.984 156.216 40.0042 154.666 41.9903 152.176C42.2044 147.07 40.1328 143.443 44.2967 139.86Z"/><path fill="#829FA7" fill-opacity="0.66274512" d="M81.2704 148.401C80.9042 146.634 81.2703 136.079 81.5479 134.062L81.8872 133.868C82.9432 136.384 82.6396 135.712 85.5023 137.013C86.48 138.341 86.3183 139.328 86.5414 141.11C86.6067 145.978 87.0092 157.384 86.5156 161.768C85.9137 157.713 86.6347 152.555 85.9554 148.043C84.6968 146.641 84.7558 149.269 81.2704 148.401Z"/><path fill="#578595" fill-opacity="0.019607844" d="M173.861 173.602C174.348 174.49 174.443 174.341 174.379 175.203C172.1 178.765 170.138 186.11 168.14 187.459C167.97 184.554 169.109 184.511 170.932 181.584C169.17 183.167 167.271 184.99 165.291 186.256C165.339 187.737 165.338 191.194 165.734 192.454C164.903 192.64 164.002 192.862 163.168 192.999C163.125 190.057 163.14 187.114 163.21 184.173C164.68 182.305 171.77 175.656 173.861 173.602Z"/><path fill="#578595" fill-opacity="0.019607844" d="M133.356 147.114C135.209 142.107 142.923 135.397 147.383 132.466L148.005 133.224C144.838 137.259 140.477 140.943 136.626 144.334C136.39 146.967 136.286 155.141 135.977 156.798L135.068 157.428L135.064 156.508C134.537 157.794 134.884 157.44 133.731 158.016C133.03 157.914 131.886 157.659 131.264 157.881L130.795 158.423L130.876 155.756C132.255 155.883 131.637 156.466 133.454 155.984C135.223 153.817 134.091 149.634 133.356 147.114Z"/><path fill="#536F7A" fill-opacity="0.98431373" d="M170.932 181.584C169.109 184.511 167.97 184.554 168.14 187.459C170.138 186.11 172.1 178.765 174.379 175.203C175.703 184.284 174.389 188.376 165.734 192.454C165.338 191.194 165.339 187.737 165.291 186.256C167.271 184.99 169.17 183.167 170.932 181.584Z"/><path fill="#578595" fill-opacity="0.019607844" d="M51.0026 179.597C51.9578 180.68 53.3639 182.408 54.4991 183.176C50.8521 186.537 52.6126 189.228 51.9598 193.651C51.6195 191.244 51.5715 189.539 51.5058 187.126L51.3415 193.146L50.6588 193.688C50.0995 192.889 50.2075 192.337 50.0933 191.283C48.5573 192.365 49.6038 194.258 47.1841 194.293C47.0381 190.943 47.0765 187.121 47.0292 183.731L51.0026 179.597Z"/><path fill="#829FA7" d="M81.3572 180.954L83.1987 181.357C84.2011 182.179 84.9 182.608 85.2518 183.873C84.2769 186.93 81.9521 185.385 80.0871 186.958C77.7378 188.94 75.2054 191.478 72.9713 193.628C72.0124 193.927 71.6587 193.882 70.6478 193.85L70.2708 193.298C70.2873 193.231 70.3039 193.165 70.3235 193.099C70.6603 191.972 80.3441 181.509 81.3572 180.954Z"/><path fill="#45515A" fill-opacity="0.89411765" d="M17.6066 175.615C18.2514 175.958 18.5836 177.217 19.328 177.946C23.9906 182.51 24.3923 185.944 25.0406 192.043C18.9581 188.943 16.4029 182.102 17.6066 175.615Z"/><path fill="#536F7A" d="M26.6618 166.581C20.0847 162.948 26.132 151.306 31.2759 152.11C27.8938 157.047 30.6046 159.623 30.8869 163.711L30.3863 164.257L29.665 163.91C28.8758 162.166 28.8078 159.788 28.6359 157.845C28.0116 159.576 27.4445 161.417 26.8736 163.174C26.3523 162.612 26.5811 162.71 25.9619 162.566C25.1791 164.21 25.7014 165.13 26.6618 166.581Z"/><path fill="#578595" fill-opacity="0.30980393" d="M66.239 139.962C67.6984 140.614 66.448 141.316 67.8877 141.584L69.115 140.958L69.11 141.46L67.6022 144.132C67.7618 145.015 67.8378 146.146 68.4606 146.735C68.3172 146.834 66.9312 147.793 66.9312 147.793C66.1626 151.012 66.1971 154.617 65.7898 157.916C65.038 156.037 64.6901 151.866 64.4448 149.676C64.3273 152.047 64.1352 153.518 63.7659 155.844C63.806 151.636 63.2613 147.447 63.892 143.282C64.163 141.492 64.9854 141.121 66.239 139.962Z"/><path fill="#80BBC8" d="M112.55 150.829C109.899 148.724 108.42 145.687 111.922 143.564C114.887 143.197 116.521 144.155 117.814 146.784C117.843 148.158 118.025 147.723 117.218 148.63C116.408 149.718 115.435 150.886 114.986 152.143C114.498 151.85 113.523 150.984 113.044 150.582L112.55 150.829Z"/><path fill="#829FA7" d="M119.133 180.537C127.463 178.901 126.367 187.205 121.378 187.99C119.664 187.508 118.818 186.914 118.21 185.11C118.286 183.193 118.216 182.206 119.133 180.537Z"/><path fill="#829FA7" d="M94.9074 161.622C86.0686 152.038 105.46 151.984 97.9802 160.902L94.9074 161.622Z"/><path fill="#65939E" fill-opacity="0.82352942" d="M150.947 134.498C153.021 135.398 151.382 137.523 154.286 136.785L154.652 137.036C153.612 138.774 152.079 142.751 150.746 143.443C150.65 142.551 150.6 142.443 150.148 141.665L149.34 141.643C146.133 143.34 144.071 147.53 141.753 150.433C140.306 145.946 148.206 142.936 149.42 139.095C149.422 139.086 149.107 137.047 149.079 136.866L150.947 134.498Z"/><path fill="#829FA7" d="M66.7183 42.507C71.6875 42.4956 74.5303 44.469 70.4888 48.9648C68.768 49.6348 68.0369 50.1243 66.3959 49.1839C65.3557 47.4077 66.244 44.5125 66.7183 42.507Z"/><path fill="#65939E" fill-opacity="0.21568628" d="M131.011 148.759C131.101 147.468 131.211 143.63 131.747 142.717C132.685 144.171 132.696 145.069 132.904 146.796L133.356 147.114C134.091 149.634 135.223 153.817 133.454 155.984C131.637 156.466 132.255 155.883 130.876 155.756L131.011 148.759Z"/><path fill="#65939E" fill-opacity="0.90588236" d="M81.1926 130.891C83 132.081 85.1459 133.578 87.015 134.598C86.3075 135.978 86.5348 139.392 86.5414 141.11C86.3183 139.328 86.48 138.341 85.5023 137.013C82.6396 135.712 82.9432 136.384 81.8872 133.868L81.5479 134.062C81.2703 136.079 80.9042 146.634 81.2704 148.401C81.2513 150.733 81.3504 154.608 81.1911 156.806L80.8507 156.345C80.5329 152.778 80.6652 134.15 81.1926 130.891Z"/><path fill="#65939E" fill-opacity="0.035294119" d="M157.794 141.677C157.476 143.448 157.416 144.003 156.498 145.537C154.246 147.962 152.425 149.854 149.988 152.085C149.088 151.099 148.925 150.879 148.347 149.666C150.778 148.235 154.294 143.3 157.794 141.677Z"/><path fill="#80BBC8" d="M121.676 151.93C123.102 151.999 123.384 152.036 124.619 152.769C126.336 155.209 125.765 156.608 123.356 158.234C121.207 157.409 119.772 157.243 119.283 154.813C119.606 153.465 120.609 152.819 121.676 151.93Z"/><path fill="#80BBC8" d="M140.041 154.905C144.631 160.867 135.773 163.562 135.068 157.428L135.977 156.798C137.66 155.571 138.015 155.368 140.041 154.905Z"/><path fill="#829FA7" d="M84.5271 185.833C87.8712 185.976 93.7972 190.73 94.6965 193.694C89.8847 193.665 86.8173 189.555 84.5271 185.833Z"/><path fill="#65939E" fill-opacity="0.015686275" d="M46.9716 168.041L47.6148 167.277C52.0655 168.973 50.26 174.021 46.8193 175.312C46.5397 175.416 46.2556 175.506 45.9677 175.584C45.1623 175.124 44.6684 174.85 44.4996 173.805C45.8197 173.12 46.068 172.958 47.0393 171.829C47.6298 170.36 47.3271 169.585 46.9716 168.041Z"/><path fill="#829FA7" fill-opacity="0.10588235" d="M89.2522 140.136L90.0093 139.918C91.4339 141.504 90.9526 151.739 90.5576 154.175L89.1292 153.908C89.1416 149.317 89.1826 144.726 89.2522 140.136Z"/><path fill="#578595" fill-opacity="0.34117648" d="M45.2388 144.827L45.8024 142.767L46.4059 142.504C46.9594 143.715 47.3293 150.5 47.2056 151.809L45.2924 152.368L45.2388 144.827Z"/><path fill="#578595" fill-opacity="0.94901961" d="M108.429 160.678L109.096 160.819C110.772 169.943 113.298 168.636 114.971 172.548C112.83 170.564 110.703 168.565 108.589 166.552L108.429 160.678Z"/><path fill="#65939E" fill-opacity="0.070588239" d="M95.7144 180.899C95.8185 180.233 95.8757 179.787 96.0899 179.142C97.5106 178.684 96.9345 178.687 98.4309 179.252C99.4619 180.36 99.5357 180.652 99.7754 182.149C99.2071 183.123 99.3964 182.828 98.1907 183.393C97.5763 182.912 96.3128 181.526 95.7144 180.899Z"/><path fill="#65939E" fill-opacity="0.87450981" d="M156.498 145.537L157.4 146.463C154.469 149.303 151.84 151.259 150.22 154.958L149.858 154.712L149.988 152.085C152.425 149.854 154.246 147.962 156.498 145.537Z"/><path fill="#578595" fill-opacity="0.89803922" d="M119.465 161.31C120.43 161.223 121.736 161.247 122.732 161.236C124.322 162.37 124.508 164.043 125.361 166.186C123.277 165.233 121.146 162.936 119.465 161.31Z"/><path fill="#829FA7" fill-opacity="0.81960785" d="M108.429 160.678C108.206 159.046 107.22 152.563 108.222 151.277C109.069 154.804 108.976 157.219 109.096 160.819L108.429 160.678Z"/><path fill="#829FA7" fill-opacity="0.15686275" d="M74.6061 148.808L75.2249 148.678C74.9182 149.356 74.6779 155.808 74.5253 157.305C73.3026 155.148 72.8795 150.538 74.6061 148.808Z"/><path fill="#578595" fill-opacity="0.082352944" d="M63.7659 155.844C64.1352 153.518 64.3273 152.047 64.4448 149.676C64.6901 151.866 65.038 156.037 65.7898 157.916L65.1674 158.192L64.5133 157.218L63.7123 157.225L63.7659 155.844Z"/></svg>