<svg width="165" height="42" viewBox="0 0 165 42" fill="none" xmlns="http://www.w3.org/2000/svg">
<g clip-path="url(#clip0_2955_71967)">
<path fill-rule="evenodd" clip-rule="evenodd" d="M25.6802 12.6453C24.0277 11.5412 22.0849 10.9518 20.0975 10.9518V0.903076C24.0723 0.903076 27.958 2.08177 31.263 4.29011C34.5681 6.49844 37.1439 9.63725 38.6651 13.3095C40.1862 16.9819 40.5842 21.0229 39.8088 24.9214C39.0333 28.8199 37.1192 32.4009 34.3085 35.2116C31.4979 38.0223 27.9168 39.9364 24.0183 40.7118C20.1198 41.4873 16.0788 41.0893 12.4065 39.5682C8.73417 38.047 5.59537 35.4711 3.38704 32.1661C1.1787 28.8611 0 24.9754 0 21.0005H10.0487C10.0487 22.988 10.6381 24.9308 11.7422 26.5833C12.8464 28.2358 14.4158 29.5238 16.252 30.2844C18.0881 31.045 20.1086 31.2439 22.0579 30.8561C24.0071 30.4685 25.7976 29.5114 27.203 28.1061C28.6083 26.7007 29.5654 24.9102 29.9531 22.961C30.3408 21.0117 30.1419 18.9912 29.3813 17.1551C28.6207 15.3189 27.3328 13.7495 25.6802 12.6453Z" fill="#002347"/>
<path fill-rule="evenodd" clip-rule="evenodd" d="M10.0487 0.903081C10.0487 2.2227 9.78882 3.5294 9.28382 4.74856C8.77882 5.96773 8.03864 7.0755 7.10553 8.00861C6.17242 8.94173 5.06466 9.68191 3.84549 10.1869C2.62631 10.6919 1.31962 10.9518 4.3924e-07 10.9518L0 21.0006C2.63924 21.0006 5.25263 20.4807 7.69098 19.4707C10.1293 18.4607 12.3449 16.9804 14.211 15.1141C16.0773 13.248 17.5576 11.0324 18.5676 8.59405C19.5776 6.1557 20.0975 3.54231 20.0975 0.903076L10.0487 0.903081Z" fill="#0E246B"/>
</g>
<path d="M61.4233 22.3092L63.8099 28.15L65.9766 28.6996V31.9026H59.3194L56.4774 23.6595L52.7249 23.6124V28.1814L55.0957 28.6839V31.9026H44.8429V28.6839L47.2138 28.1814V12.7786L44.8429 12.2761V9.02601H56.0849C57.9062 9.02601 59.4764 9.31387 60.7953 9.88957C62.1246 10.4653 63.1504 11.287 63.8727 12.3547C64.5949 13.4119 64.9561 14.668 64.9561 16.1229C64.9561 17.4628 64.5949 18.7084 63.8727 19.8598C63.5587 20.3413 63.1975 20.7914 62.7893 21.2101C62.3811 21.6288 61.9257 21.9952 61.4233 22.3092ZM52.7249 13.2496V19.3888H56.1477C57.2154 19.3888 58.0371 19.1428 58.6128 18.6508C59.1885 18.1484 59.4764 17.4261 59.4764 16.4841C59.4764 15.5106 59.1833 14.7308 58.5971 14.1446C58.0109 13.5479 57.1735 13.2496 56.0849 13.2496H52.7249ZM75.6046 32.2323C73.9507 32.2323 72.501 31.8712 71.2554 31.1489C70.0202 30.4371 69.0572 29.4584 68.3664 28.2128C67.6755 26.9672 67.3301 25.5593 67.3301 23.9892V23.4083C67.3301 21.6707 67.6336 20.1424 68.2407 18.8235C68.8479 17.4942 69.7376 16.4579 70.9099 15.7147C72.0823 14.961 73.5216 14.5895 75.2278 14.5999C76.756 14.5999 78.0592 14.893 79.1373 15.4792C81.3041 16.7039 82.3875 18.9858 82.3875 22.3249V25.1668H73.0453L73.0296 25.2767C73.1029 25.8001 73.286 26.2711 73.5791 26.6898C73.8513 27.1085 74.2333 27.4382 74.7253 27.679C75.2173 27.9197 75.8244 28.0401 76.5467 28.0401C77.9284 28.0401 79.3519 27.6999 80.8174 27.0195L82.0735 30.3482C81.3093 30.8925 80.3777 31.3426 79.2787 31.6985C78.1796 32.0544 76.9549 32.2323 75.6046 32.2323ZM72.9825 21.6811L73.0453 21.7596H77.3631V21.3514C77.3631 20.7652 77.3055 20.2576 77.1904 19.8284C76.9392 19.0015 76.3268 18.588 75.3534 18.588C74.7986 18.588 74.359 18.7189 74.0345 18.9805C73.71 19.2422 73.4692 19.6086 73.3122 20.0796C73.1552 20.5507 73.0453 21.0845 72.9825 21.6811ZM91.67 32.2323C90.3302 32.2323 89.0793 32.1119 87.9174 31.8712C86.766 31.62 85.7245 31.2798 84.7929 30.8506L84.7301 25.5593H88.4513L89.0793 28.0244C89.2991 28.1605 89.5817 28.2809 89.9272 28.3855C90.2726 28.4797 90.6861 28.5268 91.1676 28.5268C92.0573 28.5268 92.6696 28.4065 93.0046 28.1657C93.3396 27.925 93.507 27.6214 93.507 27.255C93.507 26.8887 93.3186 26.559 92.9418 26.2659C92.565 25.9833 91.7485 25.7216 90.4924 25.4808C88.5036 25.0935 87.0382 24.4341 86.0961 23.5025C85.154 22.5604 84.683 21.3881 84.683 19.9854C84.683 19.0224 84.9028 18.1431 85.3424 17.3476C85.7821 16.5416 86.4991 15.8926 87.4935 15.4007C88.4984 14.8982 89.8382 14.647 91.513 14.647C92.79 14.647 94.0042 14.7569 95.1557 14.9767C96.3175 15.1966 97.2701 15.474 98.0133 15.8089L97.9976 20.9275H94.2921L93.8211 18.7293C93.3291 18.3944 92.7167 18.2269 91.984 18.2269C91.2827 18.2269 90.7698 18.3525 90.4453 18.6037C90.1208 18.8549 89.9586 19.1794 89.9586 19.5772C89.9586 19.797 90.0318 20.0273 90.1784 20.268C90.3354 20.5297 90.6547 20.7652 91.1362 20.9746C91.6177 21.1839 92.1881 21.3619 92.8476 21.5084C94.7841 21.9376 96.239 22.5342 97.2125 23.2984C98.1964 24.0625 98.6884 25.2244 98.6884 26.784C98.6884 28.4588 98.0865 29.7882 96.8828 30.7721C95.6895 31.7456 93.9519 32.2323 91.67 32.2323ZM108.662 32.2323C106.914 32.2323 105.422 31.866 104.187 31.1332C102.952 30.411 102.005 29.4009 101.345 28.1029C100.686 26.7945 100.356 25.2819 100.356 23.5653V23.2513C100.356 21.5555 100.686 20.0587 101.345 18.7607C101.994 17.4628 102.936 16.4474 104.171 15.7147C105.406 14.9715 106.893 14.5999 108.63 14.5999C110.378 14.5999 111.87 14.9663 113.105 15.699C114.33 16.4317 115.267 17.4471 115.916 18.745C116.575 20.043 116.905 21.5451 116.905 23.2513V23.5653C116.905 25.2505 116.58 26.7526 115.931 28.0715C115.272 29.3695 114.325 30.39 113.09 31.1332C111.865 31.866 110.389 32.2323 108.662 32.2323ZM108.662 28.0401C109.321 28.0401 109.86 27.8569 110.279 27.4906C110.677 27.1242 110.965 26.6113 111.143 25.9519C111.331 25.2819 111.425 24.4864 111.425 23.5653V23.2513C111.425 22.3825 111.336 21.6026 111.158 20.9118C110.97 20.2523 110.672 19.7394 110.263 19.3731C109.855 18.9962 109.311 18.8078 108.63 18.8078C107.971 18.8078 107.432 18.991 107.013 19.3574C106.605 19.7342 106.312 20.2576 106.134 20.9275C105.956 21.5869 105.867 22.3615 105.867 23.2513V23.5653C105.867 24.4759 105.956 25.2767 106.134 25.9676C106.312 26.6375 106.605 27.1504 107.013 27.5063C107.421 27.8622 107.971 28.0401 108.662 28.0401ZM127.726 28.6839V31.9026H118.211V28.6839L120.221 28.1814V11.1457L117.834 10.6432V7.40879H125.732V28.1814L127.726 28.6839ZM145.487 18.5252L140.337 31.9026H134.481L129.912 18.4624L128.028 18.1484V14.9139H136.962V18.1327L135.439 18.4467L137.244 24.9313L137.59 26.2188H137.684L138.108 24.9313L140.479 18.4624L138.516 18.1327V14.9139H147.434V18.1484L145.487 18.5252ZM156.748 32.2323C155.094 32.2323 153.645 31.8712 152.399 31.1489C151.164 30.4371 150.201 29.4584 149.51 28.2128C148.819 26.9672 148.474 25.5593 148.474 23.9892V23.4083C148.474 21.6707 148.777 20.1424 149.384 18.8235C149.991 17.4942 150.881 16.4579 152.053 15.7147C153.226 14.961 154.665 14.5895 156.371 14.5999C157.9 14.5999 159.203 14.893 160.281 15.4792C162.448 16.7039 163.531 18.9858 163.531 22.3249V25.1668H154.189L154.173 25.2767C154.246 25.8001 154.43 26.2711 154.723 26.6898C154.995 27.1085 155.377 27.4382 155.869 27.679C156.361 27.9197 156.968 28.0401 157.69 28.0401C159.072 28.0401 160.495 27.6999 161.961 27.0195L163.217 30.3482C162.453 30.8925 161.521 31.3426 160.422 31.6985C159.323 32.0544 158.098 32.2323 156.748 32.2323ZM154.126 21.6811L154.189 21.7596H158.507V21.3514C158.507 20.7652 158.449 20.2576 158.334 19.8284C158.083 19.0015 157.47 18.588 156.497 18.588C155.942 18.588 155.503 18.7189 155.178 18.9805C154.854 19.2422 154.613 19.6086 154.456 20.0796C154.299 20.5507 154.189 21.0845 154.126 21.6811Z" fill="#002347"/>
<defs>
<clipPath id="clip0_2955_71967">
<rect width="40.1949" height="40.1949" fill="white" transform="translate(0 0.902588)"/>
</clipPath>
</defs>
</svg>
