<svg width="148" height="250" viewBox="0 0 148 250" fill="none" xmlns="http://www.w3.org/2000/svg">
<g filter="url(#filter0_di_1411_76160)">
<path d="M4 68C26.0914 68 44 85.9086 44 108V144H32L44 160V188C21.9086 188 4 170.091 4 148V68Z" fill="white"/>
<path d="M96 42C118.091 42 136 59.9086 136 82V162C113.909 162 96 144.091 96 122V86H108L96 70V42Z" fill="white"/>
<path d="M50 0C72.0914 0 90 17.9086 90 40V70L78 86H90V234C67.9086 234 50 216.091 50 194V160L62 144H50V0Z" fill="white"/>
</g>
<defs>
<filter id="filter0_di_1411_76160" x="0" y="0" width="148" height="250" filterUnits="userSpaceOnUse" color-interpolation-filters="sRGB">
<feFlood flood-opacity="0" result="BackgroundImageFix"/>
<feColorMatrix in="SourceAlpha" type="matrix" values="0 0 0 0 0 0 0 0 0 0 0 0 0 0 0 0 0 0 127 0" result="hardAlpha"/>
<feOffset dx="4" dy="8"/>
<feGaussianBlur stdDeviation="4"/>
<feComposite in2="hardAlpha" operator="out"/>
<feColorMatrix type="matrix" values="0 0 0 0 0 0 0 0 0 0 0 0 0 0 0 0 0 0 0.3 0"/>
<feBlend mode="normal" in2="BackgroundImageFix" result="effect1_dropShadow_1411_76160"/>
<feBlend mode="normal" in="SourceGraphic" in2="effect1_dropShadow_1411_76160" result="shape"/>
<feColorMatrix in="SourceAlpha" type="matrix" values="0 0 0 0 0 0 0 0 0 0 0 0 0 0 0 0 0 0 127 0" result="hardAlpha"/>
<feOffset dx="4" dy="8"/>
<feGaussianBlur stdDeviation="4"/>
<feComposite in2="hardAlpha" operator="arithmetic" k2="-1" k3="1"/>
<feColorMatrix type="matrix" values="0 0 0 0 0 0 0 0 0 0 0 0 0 0 0 0 0 0 0.25 0"/>
<feBlend mode="normal" in2="shape" result="effect2_innerShadow_1411_76160"/>
</filter>
</defs>
</svg>
