<svg width="950" height="309" viewBox="0 0 950 309" fill="none" xmlns="http://www.w3.org/2000/svg">
<path d="M218.352 188.2C206.752 188.2 196.752 186.333 188.352 182.6C180.085 178.733 172.485 172.933 165.552 165.2L185.952 145C190.485 150.2 195.485 154.267 200.952 157.2C206.552 160 213.018 161.4 220.352 161.4C227.018 161.4 232.152 160.2 235.752 157.8C239.485 155.4 241.352 152.067 241.352 147.8C241.352 143.933 240.152 140.8 237.752 138.4C235.352 136 232.152 133.933 228.152 132.2C224.285 130.467 219.952 128.8 215.152 127.2C210.485 125.6 205.818 123.8 201.152 121.8C196.485 119.667 192.152 117.067 188.152 114C184.285 110.8 181.152 106.867 178.752 102.2C176.352 97.4 175.152 91.4 175.152 84.2C175.152 75.5333 177.218 68.0667 181.352 61.8C185.618 55.5333 191.485 50.8 198.952 47.6C206.418 44.2667 215.018 42.6 224.752 42.6C234.618 42.6 243.618 44.3333 251.752 47.8C260.018 51.2667 266.818 56 272.152 62L251.752 82.2C247.485 77.8 243.152 74.5333 238.752 72.4C234.485 70.2667 229.618 69.2 224.152 69.2C218.685 69.2 214.352 70.2667 211.152 72.4C207.952 74.4 206.352 77.3333 206.352 81.2C206.352 84.8 207.552 87.7333 209.952 90C212.352 92.1333 215.485 94 219.352 95.6C223.352 97.2 227.685 98.8 232.352 100.4C237.152 102 241.885 103.867 246.552 106C251.218 108.133 255.485 110.867 259.352 114.2C263.352 117.4 266.552 121.533 268.952 126.6C271.352 131.533 272.552 137.667 272.552 145C272.552 158.467 267.752 169.067 258.152 176.8C248.552 184.4 235.285 188.2 218.352 188.2ZM323.767 188C314.834 188 306.834 185.8 299.767 181.4C292.834 177 287.301 171 283.167 163.4C279.167 155.8 277.167 147.133 277.167 137.4C277.167 127.667 279.167 119 283.167 111.4C287.301 103.8 292.834 97.8 299.767 93.4C306.834 89 314.834 86.8 323.767 86.8C330.301 86.8 336.167 88.0667 341.367 90.6C346.701 93.1333 351.034 96.6667 354.367 101.2C357.701 105.6 359.567 110.667 359.967 116.4V158.4C359.567 164.133 357.701 169.267 354.367 173.8C351.167 178.2 346.901 181.667 341.567 184.2C336.234 186.733 330.301 188 323.767 188ZM329.967 160.4C336.501 160.4 341.767 158.267 345.767 154C349.767 149.6 351.767 144.067 351.767 137.4C351.767 132.867 350.834 128.867 348.967 125.4C347.234 121.933 344.701 119.267 341.367 117.4C338.167 115.4 334.434 114.4 330.167 114.4C325.901 114.4 322.101 115.4 318.767 117.4C315.567 119.267 312.967 121.933 310.967 125.4C309.101 128.867 308.167 132.867 308.167 137.4C308.167 141.8 309.101 145.733 310.967 149.2C312.834 152.667 315.434 155.4 318.767 157.4C322.101 159.4 325.834 160.4 329.967 160.4ZM350.567 186V159.8L355.167 136.2L350.567 112.6V88.8H380.567V186H350.567ZM408.513 186V80.4C408.513 72.5333 410.246 65.4667 413.713 59.2C417.313 52.8 422.313 47.8 428.713 44.2C435.113 40.4667 442.713 38.6 451.513 38.6C458.179 38.6 463.979 39.7333 468.913 42C473.979 44.1333 478.379 47.1333 482.113 51L462.913 70.2C461.579 68.8667 460.046 67.8667 458.313 67.2C456.713 66.4 454.779 66 452.513 66C448.379 66 445.113 67.2 442.713 69.6C440.313 72 439.113 75.2667 439.113 79.4V186H408.513ZM387.113 114.8V88.8H467.113V114.8H387.113ZM520.422 188.2C511.489 188.2 503.555 186.4 496.622 182.8C489.822 179.067 484.489 174 480.622 167.6C476.755 161.067 474.822 153.6 474.822 145.2V88.8H505.422V144.8C505.422 148.133 505.955 151 507.022 153.4C508.222 155.8 509.955 157.667 512.222 159C514.489 160.333 517.222 161 520.422 161C524.955 161 528.555 159.6 531.222 156.8C533.889 153.867 535.222 149.867 535.222 144.8V88.8H565.822V145C565.822 153.533 563.889 161.067 560.022 167.6C556.155 174 550.822 179.067 544.022 182.8C537.222 186.4 529.355 188.2 520.422 188.2ZM579.034 186V40.8H609.634V186H579.034ZM651.983 134.6V110.2H682.383C686.249 110.2 689.783 109.4 692.983 107.8C696.183 106.2 698.716 103.867 700.583 100.8C702.449 97.7333 703.383 94 703.383 89.6C703.383 85.3333 702.449 81.6667 700.583 78.6C698.716 75.5333 696.183 73.2 692.983 71.6C689.783 70 686.249 69.2 682.383 69.2H651.983V44.8H686.983C695.916 44.8 703.983 46.6 711.183 50.2C718.383 53.8 724.049 59 728.183 65.8C732.449 72.4667 734.583 80.4 734.583 89.6C734.583 98.8 732.449 106.8 728.183 113.6C724.049 120.267 718.383 125.467 711.183 129.2C703.983 132.8 695.916 134.6 686.983 134.6H651.983ZM627.983 186V44.8H659.383V186H627.983ZM781.267 188C772.334 188 764.334 185.8 757.267 181.4C750.334 177 744.801 171 740.667 163.4C736.667 155.8 734.667 147.133 734.667 137.4C734.667 127.667 736.667 119 740.667 111.4C744.801 103.8 750.334 97.8 757.267 93.4C764.334 89 772.334 86.8 781.267 86.8C787.801 86.8 793.667 88.0667 798.867 90.6C804.201 93.1333 808.534 96.6667 811.867 101.2C815.201 105.6 817.067 110.667 817.467 116.4V158.4C817.067 164.133 815.201 169.267 811.867 173.8C808.667 178.2 804.401 181.667 799.067 184.2C793.734 186.733 787.801 188 781.267 188ZM787.467 160.4C794.001 160.4 799.267 158.267 803.267 154C807.267 149.6 809.267 144.067 809.267 137.4C809.267 132.867 808.334 128.867 806.467 125.4C804.734 121.933 802.201 119.267 798.867 117.4C795.667 115.4 791.934 114.4 787.667 114.4C783.401 114.4 779.601 115.4 776.267 117.4C773.067 119.267 770.467 121.933 768.467 125.4C766.601 128.867 765.667 132.867 765.667 137.4C765.667 141.8 766.601 145.733 768.467 149.2C770.334 152.667 772.934 155.4 776.267 157.4C779.601 159.4 783.334 160.4 787.467 160.4ZM808.067 186V159.8L812.667 136.2L808.067 112.6V88.8H838.067V186H808.067ZM883.613 186.4L843.613 88.8H876.613L902.013 166.2H889.813L915.813 88.8H948.813L907.213 186.4H883.613ZM858.613 227L887.813 164L907.213 186.4L890.013 227H858.613Z" fill="#C3F02C"/>
<path d="M218.352 188.2C206.752 188.2 196.752 186.333 188.352 182.6C180.085 178.733 172.485 172.933 165.552 165.2L185.952 145C190.485 150.2 195.485 154.267 200.952 157.2C206.552 160 213.018 161.4 220.352 161.4C227.018 161.4 232.152 160.2 235.752 157.8C239.485 155.4 241.352 152.067 241.352 147.8C241.352 143.933 240.152 140.8 237.752 138.4C235.352 136 232.152 133.933 228.152 132.2C224.285 130.467 219.952 128.8 215.152 127.2C210.485 125.6 205.818 123.8 201.152 121.8C196.485 119.667 192.152 117.067 188.152 114C184.285 110.8 181.152 106.867 178.752 102.2C176.352 97.4 175.152 91.4 175.152 84.2C175.152 75.5333 177.218 68.0667 181.352 61.8C185.618 55.5333 191.485 50.8 198.952 47.6C206.418 44.2667 215.018 42.6 224.752 42.6C234.618 42.6 243.618 44.3333 251.752 47.8C260.018 51.2667 266.818 56 272.152 62L251.752 82.2C247.485 77.8 243.152 74.5333 238.752 72.4C234.485 70.2667 229.618 69.2 224.152 69.2C218.685 69.2 214.352 70.2667 211.152 72.4C207.952 74.4 206.352 77.3333 206.352 81.2C206.352 84.8 207.552 87.7333 209.952 90C212.352 92.1333 215.485 94 219.352 95.6C223.352 97.2 227.685 98.8 232.352 100.4C237.152 102 241.885 103.867 246.552 106C251.218 108.133 255.485 110.867 259.352 114.2C263.352 117.4 266.552 121.533 268.952 126.6C271.352 131.533 272.552 137.667 272.552 145C272.552 158.467 267.752 169.067 258.152 176.8C248.552 184.4 235.285 188.2 218.352 188.2ZM323.767 188C314.834 188 306.834 185.8 299.767 181.4C292.834 177 287.301 171 283.167 163.4C279.167 155.8 277.167 147.133 277.167 137.4C277.167 127.667 279.167 119 283.167 111.4C287.301 103.8 292.834 97.8 299.767 93.4C306.834 89 314.834 86.8 323.767 86.8C330.301 86.8 336.167 88.0667 341.367 90.6C346.701 93.1333 351.034 96.6667 354.367 101.2C357.701 105.6 359.567 110.667 359.967 116.4V158.4C359.567 164.133 357.701 169.267 354.367 173.8C351.167 178.2 346.901 181.667 341.567 184.2C336.234 186.733 330.301 188 323.767 188ZM329.967 160.4C336.501 160.4 341.767 158.267 345.767 154C349.767 149.6 351.767 144.067 351.767 137.4C351.767 132.867 350.834 128.867 348.967 125.4C347.234 121.933 344.701 119.267 341.367 117.4C338.167 115.4 334.434 114.4 330.167 114.4C325.901 114.4 322.101 115.4 318.767 117.4C315.567 119.267 312.967 121.933 310.967 125.4C309.101 128.867 308.167 132.867 308.167 137.4C308.167 141.8 309.101 145.733 310.967 149.2C312.834 152.667 315.434 155.4 318.767 157.4C322.101 159.4 325.834 160.4 329.967 160.4ZM350.567 186V159.8L355.167 136.2L350.567 112.6V88.8H380.567V186H350.567ZM408.513 186V80.4C408.513 72.5333 410.246 65.4667 413.713 59.2C417.313 52.8 422.313 47.8 428.713 44.2C435.113 40.4667 442.713 38.6 451.513 38.6C458.179 38.6 463.979 39.7333 468.913 42C473.979 44.1333 478.379 47.1333 482.113 51L462.913 70.2C461.579 68.8667 460.046 67.8667 458.313 67.2C456.713 66.4 454.779 66 452.513 66C448.379 66 445.113 67.2 442.713 69.6C440.313 72 439.113 75.2667 439.113 79.4V186H408.513ZM387.113 114.8V88.8H467.113V114.8H387.113ZM520.422 188.2C511.489 188.2 503.555 186.4 496.622 182.8C489.822 179.067 484.489 174 480.622 167.6C476.755 161.067 474.822 153.6 474.822 145.2V88.8H505.422V144.8C505.422 148.133 505.955 151 507.022 153.4C508.222 155.8 509.955 157.667 512.222 159C514.489 160.333 517.222 161 520.422 161C524.955 161 528.555 159.6 531.222 156.8C533.889 153.867 535.222 149.867 535.222 144.8V88.8H565.822V145C565.822 153.533 563.889 161.067 560.022 167.6C556.155 174 550.822 179.067 544.022 182.8C537.222 186.4 529.355 188.2 520.422 188.2ZM579.034 186V40.8H609.634V186H579.034ZM651.983 134.6V110.2H682.383C686.249 110.2 689.783 109.4 692.983 107.8C696.183 106.2 698.716 103.867 700.583 100.8C702.449 97.7333 703.383 94 703.383 89.6C703.383 85.3333 702.449 81.6667 700.583 78.6C698.716 75.5333 696.183 73.2 692.983 71.6C689.783 70 686.249 69.2 682.383 69.2H651.983V44.8H686.983C695.916 44.8 703.983 46.6 711.183 50.2C718.383 53.8 724.049 59 728.183 65.8C732.449 72.4667 734.583 80.4 734.583 89.6C734.583 98.8 732.449 106.8 728.183 113.6C724.049 120.267 718.383 125.467 711.183 129.2C703.983 132.8 695.916 134.6 686.983 134.6H651.983ZM627.983 186V44.8H659.383V186H627.983ZM781.267 188C772.334 188 764.334 185.8 757.267 181.4C750.334 177 744.801 171 740.667 163.4C736.667 155.8 734.667 147.133 734.667 137.4C734.667 127.667 736.667 119 740.667 111.4C744.801 103.8 750.334 97.8 757.267 93.4C764.334 89 772.334 86.8 781.267 86.8C787.801 86.8 793.667 88.0667 798.867 90.6C804.201 93.1333 808.534 96.6667 811.867 101.2C815.201 105.6 817.067 110.667 817.467 116.4V158.4C817.067 164.133 815.201 169.267 811.867 173.8C808.667 178.2 804.401 181.667 799.067 184.2C793.734 186.733 787.801 188 781.267 188ZM787.467 160.4C794.001 160.4 799.267 158.267 803.267 154C807.267 149.6 809.267 144.067 809.267 137.4C809.267 132.867 808.334 128.867 806.467 125.4C804.734 121.933 802.201 119.267 798.867 117.4C795.667 115.4 791.934 114.4 787.667 114.4C783.401 114.4 779.601 115.4 776.267 117.4C773.067 119.267 770.467 121.933 768.467 125.4C766.601 128.867 765.667 132.867 765.667 137.4C765.667 141.8 766.601 145.733 768.467 149.2C770.334 152.667 772.934 155.4 776.267 157.4C779.601 159.4 783.334 160.4 787.467 160.4ZM808.067 186V159.8L812.667 136.2L808.067 112.6V88.8H838.067V186H808.067ZM883.613 186.4L843.613 88.8H876.613L902.013 166.2H889.813L915.813 88.8H948.813L907.213 186.4H883.613ZM858.613 227L887.813 164L907.213 186.4L890.013 227H858.613Z" fill="#C3F02C"/>
<path d="M0 68C22.0914 68 40 85.9086 40 108V144H28L40 160V188C17.9086 188 0 170.091 0 148V68Z" fill="#C3F02C"/>
<path d="M92 42C114.091 42 132 59.9086 132 82V162C109.909 162 92 144.091 92 122V86H104L92 70V42Z" fill="#C3F02C"/>
<path d="M46 0C68.0914 0 86 17.9086 86 40V70L74 86H86V234C63.9086 234 46 216.091 46 194V160L58 144H46V0Z" fill="#C3F02C"/>
<path d="M425.744 283.64C422.203 283.64 419.195 283 416.72 281.72C414.245 280.44 412.027 278.563 410.064 276.088L415.056 271.096C416.293 272.888 417.765 274.296 419.472 275.32C421.179 276.301 423.355 276.792 426 276.792C428.475 276.792 430.437 276.28 431.888 275.256C433.381 274.232 434.128 272.824 434.128 271.032C434.128 269.539 433.744 268.323 432.976 267.384C432.208 266.445 431.184 265.677 429.904 265.08C428.667 264.44 427.28 263.885 425.744 263.416C424.251 262.904 422.736 262.349 421.2 261.752C419.707 261.112 418.32 260.323 417.04 259.384C415.803 258.445 414.8 257.229 414.032 255.736C413.264 254.243 412.88 252.344 412.88 250.04C412.88 247.395 413.52 245.155 414.8 243.32C416.123 241.443 417.893 240.013 420.112 239.032C422.331 238.051 424.805 237.56 427.536 237.56C430.48 237.56 433.104 238.136 435.408 239.288C437.755 240.44 439.653 241.912 441.104 243.704L436.112 248.696C434.832 247.245 433.488 246.179 432.08 245.496C430.715 244.771 429.136 244.408 427.344 244.408C425.125 244.408 423.376 244.856 422.096 245.752C420.859 246.648 420.24 247.907 420.24 249.528C420.24 250.893 420.624 252.003 421.392 252.856C422.16 253.667 423.163 254.371 424.4 254.968C425.68 255.523 427.067 256.056 428.56 256.568C430.096 257.08 431.611 257.656 433.104 258.296C434.64 258.936 436.027 259.768 437.264 260.792C438.544 261.773 439.568 263.053 440.336 264.632C441.104 266.211 441.488 268.195 441.488 270.584C441.488 274.595 440.059 277.773 437.2 280.12C434.384 282.467 430.565 283.64 425.744 283.64ZM459.651 283.64C456.665 283.64 453.955 282.936 451.523 281.528C449.091 280.077 447.15 278.136 445.699 275.704C444.291 273.272 443.587 270.563 443.587 267.576C443.587 264.589 444.291 261.901 445.699 259.512C447.15 257.123 449.091 255.224 451.523 253.816C453.955 252.365 456.665 251.64 459.651 251.64C462.681 251.64 465.411 252.344 467.843 253.752C470.275 255.16 472.195 257.08 473.603 259.512C475.054 261.901 475.779 264.589 475.779 267.576C475.779 270.563 475.054 273.272 473.603 275.704C472.195 278.136 470.275 280.077 467.843 281.528C465.411 282.936 462.681 283.64 459.651 283.64ZM459.651 276.856C461.401 276.856 462.937 276.472 464.259 275.704C465.625 274.893 466.67 273.784 467.395 272.376C468.163 270.968 468.547 269.368 468.547 267.576C468.547 265.784 468.163 264.205 467.395 262.84C466.627 261.475 465.582 260.408 464.259 259.64C462.937 258.829 461.401 258.424 459.651 258.424C457.945 258.424 456.409 258.829 455.043 259.64C453.721 260.408 452.675 261.475 451.907 262.84C451.182 264.205 450.819 265.784 450.819 267.576C450.819 269.368 451.182 270.968 451.907 272.376C452.675 273.784 453.721 274.893 455.043 275.704C456.409 276.472 457.945 276.856 459.651 276.856ZM491.566 283V238.2H498.926V283H491.566ZM496.622 263.8V257.08H519.406V263.8H496.622ZM496.622 244.92V238.2H520.494V244.92H496.622ZM536.613 283.64C533.84 283.64 531.322 282.936 529.061 281.528C526.842 280.12 525.072 278.221 523.749 275.832C522.469 273.4 521.829 270.691 521.829 267.704C521.829 264.675 522.469 261.965 523.749 259.576C525.072 257.144 526.842 255.224 529.061 253.816C531.322 252.365 533.84 251.64 536.613 251.64C538.96 251.64 541.029 252.152 542.821 253.176C544.656 254.157 546.106 255.523 547.173 257.272C548.24 259.021 548.773 261.005 548.773 263.224V272.056C548.773 274.275 548.24 276.259 547.173 278.008C546.149 279.757 544.72 281.144 542.885 282.168C541.05 283.149 538.96 283.64 536.613 283.64ZM537.765 276.984C540.368 276.984 542.458 276.109 544.037 274.36C545.658 272.611 546.469 270.371 546.469 267.64C546.469 265.805 546.106 264.184 545.381 262.776C544.656 261.368 543.632 260.28 542.309 259.512C541.029 258.701 539.514 258.296 537.765 258.296C536.058 258.296 534.544 258.701 533.221 259.512C531.941 260.28 530.917 261.368 530.149 262.776C529.424 264.184 529.061 265.805 529.061 267.64C529.061 269.475 529.424 271.096 530.149 272.504C530.917 273.912 531.941 275.021 533.221 275.832C534.544 276.6 536.058 276.984 537.765 276.984ZM546.021 283V274.744L547.237 267.256L546.021 259.832V252.28H553.061V283H546.021ZM569.002 283.64C567.295 283.64 565.653 283.427 564.074 283C562.495 282.531 561.045 281.891 559.722 281.08C558.399 280.227 557.247 279.203 556.266 278.008L560.746 273.528C561.813 274.765 563.029 275.704 564.394 276.344C565.802 276.941 567.381 277.24 569.13 277.24C570.709 277.24 571.903 277.005 572.714 276.536C573.525 276.067 573.93 275.384 573.93 274.488C573.93 273.549 573.546 272.824 572.778 272.312C572.01 271.8 571.007 271.373 569.77 271.032C568.575 270.648 567.295 270.264 565.93 269.88C564.607 269.496 563.327 268.984 562.09 268.344C560.895 267.661 559.914 266.744 559.146 265.592C558.378 264.44 557.994 262.947 557.994 261.112C557.994 259.149 558.442 257.464 559.338 256.056C560.277 254.648 561.578 253.56 563.242 252.792C564.949 252.024 566.975 251.64 569.322 251.64C571.797 251.64 573.973 252.088 575.85 252.984C577.77 253.837 579.37 255.139 580.65 256.888L576.17 261.368C575.274 260.259 574.25 259.427 573.098 258.872C571.946 258.317 570.623 258.04 569.13 258.04C567.722 258.04 566.634 258.253 565.866 258.68C565.098 259.107 564.714 259.725 564.714 260.536C564.714 261.389 565.098 262.051 565.866 262.52C566.634 262.989 567.615 263.395 568.81 263.736C570.047 264.077 571.327 264.461 572.65 264.888C574.015 265.272 575.295 265.827 576.49 266.552C577.727 267.235 578.73 268.173 579.498 269.368C580.266 270.52 580.65 272.035 580.65 273.912C580.65 276.899 579.605 279.267 577.514 281.016C575.423 282.765 572.586 283.64 569.002 283.64ZM589.206 283V239.48H596.246V283H589.206ZM581.846 258.68V252.28H603.606V258.68H581.846ZM604.614 290.488L608.966 282.36L611.334 281.72C611.078 282.232 610.779 282.659 610.438 283C610.097 283.341 609.691 283.512 609.222 283.512C608.241 283.512 607.323 283.107 606.47 282.296C605.659 281.443 605.254 280.376 605.254 279.096C605.254 277.731 605.702 276.579 606.598 275.64C607.537 274.659 608.689 274.168 610.054 274.168C611.334 274.168 612.443 274.659 613.382 275.64C614.363 276.579 614.854 277.731 614.854 279.096C614.854 279.651 614.726 280.312 614.47 281.08C614.257 281.805 613.851 282.744 613.254 283.896L608.518 292.6L604.614 290.488ZM644.714 283.64C641.173 283.64 638.165 283 635.69 281.72C633.215 280.44 630.997 278.563 629.034 276.088L634.026 271.096C635.263 272.888 636.735 274.296 638.442 275.32C640.149 276.301 642.325 276.792 644.97 276.792C647.445 276.792 649.407 276.28 650.858 275.256C652.351 274.232 653.098 272.824 653.098 271.032C653.098 269.539 652.714 268.323 651.946 267.384C651.178 266.445 650.154 265.677 648.874 265.08C647.637 264.44 646.25 263.885 644.714 263.416C643.221 262.904 641.706 262.349 640.17 261.752C638.677 261.112 637.29 260.323 636.01 259.384C634.773 258.445 633.77 257.229 633.002 255.736C632.234 254.243 631.85 252.344 631.85 250.04C631.85 247.395 632.49 245.155 633.77 243.32C635.093 241.443 636.863 240.013 639.082 239.032C641.301 238.051 643.775 237.56 646.506 237.56C649.45 237.56 652.074 238.136 654.378 239.288C656.725 240.44 658.623 241.912 660.074 243.704L655.082 248.696C653.802 247.245 652.458 246.179 651.05 245.496C649.685 244.771 648.106 244.408 646.314 244.408C644.095 244.408 642.346 244.856 641.066 245.752C639.829 246.648 639.21 247.907 639.21 249.528C639.21 250.893 639.594 252.003 640.362 252.856C641.13 253.667 642.133 254.371 643.37 254.968C644.65 255.523 646.037 256.056 647.53 256.568C649.066 257.08 650.581 257.656 652.074 258.296C653.61 258.936 654.997 259.768 656.234 260.792C657.514 261.773 658.538 263.053 659.306 264.632C660.074 266.211 660.458 268.195 660.458 270.584C660.458 274.595 659.029 277.773 656.17 280.12C653.354 282.467 649.535 283.64 644.714 283.64ZM678.621 283.64C675.635 283.64 672.925 282.936 670.493 281.528C668.061 280.077 666.12 278.136 664.669 275.704C663.261 273.272 662.557 270.563 662.557 267.576C662.557 264.589 663.261 261.901 664.669 259.512C666.12 257.123 668.061 255.224 670.493 253.816C672.925 252.365 675.635 251.64 678.621 251.64C681.651 251.64 684.381 252.344 686.813 253.752C689.245 255.16 691.165 257.08 692.573 259.512C694.024 261.901 694.75 264.589 694.75 267.576C694.75 270.563 694.024 273.272 692.573 275.704C691.165 278.136 689.245 280.077 686.813 281.528C684.381 282.936 681.651 283.64 678.621 283.64ZM678.621 276.856C680.371 276.856 681.907 276.472 683.229 275.704C684.595 274.893 685.64 273.784 686.365 272.376C687.133 270.968 687.517 269.368 687.517 267.576C687.517 265.784 687.133 264.205 686.365 262.84C685.597 261.475 684.552 260.408 683.229 259.64C681.907 258.829 680.371 258.424 678.621 258.424C676.915 258.424 675.379 258.829 674.013 259.64C672.691 260.408 671.645 261.475 670.877 262.84C670.152 264.205 669.789 265.784 669.789 267.576C669.789 269.368 670.152 270.968 670.877 272.376C671.645 273.784 672.691 274.893 674.013 275.704C675.379 276.472 676.915 276.856 678.621 276.856ZM730.76 283.64C727.688 283.64 724.787 283.043 722.056 281.848C719.326 280.653 716.936 279.011 714.888 276.92C712.84 274.787 711.219 272.333 710.024 269.56C708.872 266.744 708.296 263.736 708.296 260.536C708.296 257.336 708.872 254.349 710.024 251.576C711.219 248.803 712.84 246.371 714.888 244.28C716.979 242.147 719.411 240.504 722.184 239.352C725 238.157 728.03 237.56 731.272 237.56C734.814 237.56 738.099 238.243 741.128 239.608C744.158 240.973 746.696 242.915 748.744 245.432L743.752 250.424C742.43 248.547 740.659 247.117 738.44 246.136C736.222 245.112 733.832 244.6 731.272 244.6C728.2 244.6 725.491 245.283 723.144 246.648C720.84 247.971 719.048 249.827 717.768 252.216C716.488 254.605 715.848 257.379 715.848 260.536C715.848 263.693 716.488 266.488 717.768 268.92C719.091 271.309 720.862 273.187 723.08 274.552C725.299 275.917 727.816 276.6 730.632 276.6C733.619 276.6 736.179 276.067 738.312 275C740.488 273.891 742.152 272.269 743.304 270.136C744.456 267.96 745.032 265.293 745.032 262.136L749.64 265.464H730.504V258.744H752.648V259.768C752.648 265.101 751.688 269.539 749.768 273.08C747.891 276.621 745.31 279.267 742.024 281.016C738.739 282.765 734.984 283.64 730.76 283.64ZM771.174 283.64C768.187 283.64 765.478 282.936 763.046 281.528C760.614 280.077 758.673 278.136 757.222 275.704C755.814 273.272 755.11 270.563 755.11 267.576C755.11 264.589 755.814 261.901 757.222 259.512C758.673 257.123 760.614 255.224 763.046 253.816C765.478 252.365 768.187 251.64 771.174 251.64C774.203 251.64 776.934 252.344 779.366 253.752C781.798 255.16 783.718 257.08 785.126 259.512C786.577 261.901 787.302 264.589 787.302 267.576C787.302 270.563 786.577 273.272 785.126 275.704C783.718 278.136 781.798 280.077 779.366 281.528C776.934 282.936 774.203 283.64 771.174 283.64ZM771.174 276.856C772.923 276.856 774.459 276.472 775.782 275.704C777.147 274.893 778.193 273.784 778.918 272.376C779.686 270.968 780.07 269.368 780.07 267.576C780.07 265.784 779.686 264.205 778.918 262.84C778.15 261.475 777.105 260.408 775.782 259.64C774.459 258.829 772.923 258.424 771.174 258.424C769.467 258.424 767.931 258.829 766.566 259.64C765.243 260.408 764.198 261.475 763.43 262.84C762.705 264.205 762.342 265.784 762.342 267.576C762.342 269.368 762.705 270.968 763.43 272.376C764.198 273.784 765.243 274.893 766.566 275.704C767.931 276.472 769.467 276.856 771.174 276.856ZM805.316 283.64C802.33 283.64 799.62 282.936 797.188 281.528C794.756 280.077 792.815 278.136 791.364 275.704C789.956 273.272 789.252 270.563 789.252 267.576C789.252 264.589 789.956 261.901 791.364 259.512C792.815 257.123 794.756 255.224 797.188 253.816C799.62 252.365 802.33 251.64 805.316 251.64C808.346 251.64 811.076 252.344 813.508 253.752C815.94 255.16 817.86 257.08 819.268 259.512C820.719 261.901 821.444 264.589 821.444 267.576C821.444 270.563 820.719 273.272 819.268 275.704C817.86 278.136 815.94 280.077 813.508 281.528C811.076 282.936 808.346 283.64 805.316 283.64ZM805.316 276.856C807.066 276.856 808.602 276.472 809.924 275.704C811.29 274.893 812.335 273.784 813.06 272.376C813.828 270.968 814.212 269.368 814.212 267.576C814.212 265.784 813.828 264.205 813.06 262.84C812.292 261.475 811.247 260.408 809.924 259.64C808.602 258.829 807.066 258.424 805.316 258.424C803.61 258.424 802.074 258.829 800.708 259.64C799.386 260.408 798.34 261.475 797.572 262.84C796.847 264.205 796.484 265.784 796.484 267.576C796.484 269.368 796.847 270.968 797.572 272.376C798.34 273.784 799.386 274.893 800.708 275.704C802.074 276.472 803.61 276.856 805.316 276.856ZM838.243 283.64C835.47 283.64 832.952 282.936 830.691 281.528C828.472 280.12 826.702 278.221 825.379 275.832C824.099 273.4 823.459 270.691 823.459 267.704C823.459 264.675 824.099 261.965 825.379 259.576C826.702 257.144 828.472 255.224 830.691 253.816C832.952 252.365 835.47 251.64 838.243 251.64C840.59 251.64 842.659 252.152 844.451 253.176C846.286 254.157 847.736 255.523 848.803 257.272C849.87 259.021 850.403 261.005 850.403 263.224V272.056C850.403 274.275 849.87 276.259 848.803 278.008C847.779 279.757 846.35 281.144 844.515 282.168C842.68 283.149 840.59 283.64 838.243 283.64ZM839.395 276.984C841.144 276.984 842.659 276.6 843.939 275.832C845.262 275.021 846.286 273.912 847.011 272.504C847.736 271.096 848.099 269.475 848.099 267.64C848.099 265.805 847.736 264.184 847.011 262.776C846.286 261.368 845.262 260.28 843.939 259.512C842.659 258.701 841.144 258.296 839.395 258.296C837.688 258.296 836.174 258.701 834.851 259.512C833.571 260.28 832.547 261.368 831.779 262.776C831.054 264.184 830.691 265.805 830.691 267.64C830.691 269.475 831.054 271.096 831.779 272.504C832.547 273.912 833.571 275.021 834.851 275.832C836.174 276.6 837.688 276.984 839.395 276.984ZM854.691 283H847.651V274.744L848.867 267.256L847.651 259.832V236.92H854.691V283Z" fill="#C3F02C"/>
</svg>
